<mxfile host="app.diagrams.net" agent="Mozilla/5.0 (Windows NT 10.0; Win64; x64) AppleWebKit/537.36 (KHTML, like Gecko) Chrome/128.0.0.0 Safari/537.36" version="24.7.12">
  <diagram name="Page-1" id="U4LzexEA5z4gXmBC9XQn">
    <mxGraphModel dx="741" dy="373" grid="1" gridSize="10" guides="1" tooltips="1" connect="1" arrows="1" fold="1" page="1" pageScale="1" pageWidth="850" pageHeight="1100" background="#ffffff" math="0" shadow="0">
      <root>
        <mxCell id="0" />
        <mxCell id="1" parent="0" />
        <mxCell id="6z_8afMqLUwwlyAEEc4o-232" style="edgeStyle=orthogonalEdgeStyle;rounded=0;orthogonalLoop=1;jettySize=auto;html=1;exitX=0.5;exitY=1;exitDx=0;exitDy=0;labelBackgroundColor=none;strokeColor=#A8201A;fontColor=default;entryX=0.25;entryY=0;entryDx=0;entryDy=0;" parent="1" source="6z_8afMqLUwwlyAEEc4o-233" target="4kLDl25QIKVFQ8sIAu_H-13" edge="1">
          <mxGeometry relative="1" as="geometry">
            <mxPoint x="100" y="710" as="targetPoint" />
            <Array as="points">
              <mxPoint x="640" y="510" />
              <mxPoint x="50" y="510" />
              <mxPoint x="50" y="650" />
              <mxPoint x="117" y="650" />
            </Array>
          </mxGeometry>
        </mxCell>
        <mxCell id="6z_8afMqLUwwlyAEEc4o-218" style="edgeStyle=orthogonalEdgeStyle;rounded=0;orthogonalLoop=1;jettySize=auto;html=1;labelBackgroundColor=none;strokeColor=#A8201A;fontColor=default;exitX=0;exitY=0.25;exitDx=0;exitDy=0;" parent="1" source="4kLDl25QIKVFQ8sIAu_H-9" target="6z_8afMqLUwwlyAEEc4o-219" edge="1">
          <mxGeometry relative="1" as="geometry">
            <mxPoint x="120" y="620" as="sourcePoint" />
            <Array as="points">
              <mxPoint x="60" y="595" />
              <mxPoint x="60" y="520" />
              <mxPoint x="661" y="520" />
            </Array>
          </mxGeometry>
        </mxCell>
        <mxCell id="4kLDl25QIKVFQ8sIAu_H-2" value="Power Regulation Subsystem" style="swimlane;whiteSpace=wrap;html=1;collapsible=0;labelBackgroundColor=none;fillColor=#FAE5C7;strokeColor=#0F8B8D;fontColor=#143642;" parent="1" vertex="1">
          <mxGeometry x="10" y="550" width="310" height="320" as="geometry" />
        </mxCell>
        <mxCell id="4kLDl25QIKVFQ8sIAu_H-10" style="edgeStyle=orthogonalEdgeStyle;rounded=0;orthogonalLoop=1;jettySize=auto;html=1;strokeColor=#A8201A;fontColor=default;fillColor=#FAE5C7;entryX=0;entryY=0.75;entryDx=0;entryDy=0;exitX=0.75;exitY=0;exitDx=0;exitDy=0;labelBackgroundColor=none;" parent="4kLDl25QIKVFQ8sIAu_H-2" source="4kLDl25QIKVFQ8sIAu_H-13" target="4kLDl25QIKVFQ8sIAu_H-9" edge="1">
          <mxGeometry relative="1" as="geometry">
            <mxPoint x="80" y="130" as="sourcePoint" />
            <Array as="points">
              <mxPoint x="143" y="120" />
              <mxPoint x="100" y="120" />
              <mxPoint x="100" y="85" />
            </Array>
          </mxGeometry>
        </mxCell>
        <mxCell id="4kLDl25QIKVFQ8sIAu_H-9" value="Relay" style="whiteSpace=wrap;html=1;strokeColor=#0F8B8D;fontColor=#143642;fillColor=#FAE5C7;labelBackgroundColor=none;" parent="4kLDl25QIKVFQ8sIAu_H-2" vertex="1">
          <mxGeometry x="120" y="40" width="65" height="60" as="geometry" />
        </mxCell>
        <mxCell id="4kLDl25QIKVFQ8sIAu_H-25" style="edgeStyle=orthogonalEdgeStyle;rounded=0;orthogonalLoop=1;jettySize=auto;html=1;strokeColor=#A8201A;fontColor=default;fillColor=#FAE5C7;entryX=0.5;entryY=1;entryDx=0;entryDy=0;labelBackgroundColor=none;" parent="4kLDl25QIKVFQ8sIAu_H-2" target="4kLDl25QIKVFQ8sIAu_H-13" edge="1">
          <mxGeometry relative="1" as="geometry">
            <mxPoint x="690" y="420" as="sourcePoint" />
            <Array as="points">
              <mxPoint x="680" y="420" />
              <mxPoint x="280" y="420" />
              <mxPoint x="280" y="270" />
              <mxPoint x="125" y="270" />
            </Array>
          </mxGeometry>
        </mxCell>
        <mxCell id="CXnemEisMQlB7KgPm6j0-24" style="edgeStyle=orthogonalEdgeStyle;shape=connector;rounded=0;orthogonalLoop=1;jettySize=auto;html=1;entryX=0;entryY=0.5;entryDx=0;entryDy=0;strokeColor=#A8201A;align=center;verticalAlign=middle;fontFamily=Helvetica;fontSize=11;fontColor=default;labelBackgroundColor=none;endArrow=classic;fillColor=#FAE5C7;exitX=0.25;exitY=1;exitDx=0;exitDy=0;" parent="4kLDl25QIKVFQ8sIAu_H-2" source="4kLDl25QIKVFQ8sIAu_H-13" target="4kLDl25QIKVFQ8sIAu_H-26" edge="1">
          <mxGeometry relative="1" as="geometry">
            <Array as="points">
              <mxPoint x="108" y="295" />
            </Array>
          </mxGeometry>
        </mxCell>
        <mxCell id="4kLDl25QIKVFQ8sIAu_H-13" value="24V Regulator" style="rounded=0;whiteSpace=wrap;html=1;strokeColor=#0F8B8D;fontColor=#143642;fillColor=#FAE5C7;labelBackgroundColor=none;" parent="4kLDl25QIKVFQ8sIAu_H-2" vertex="1">
          <mxGeometry x="90" y="140" width="70" height="60" as="geometry" />
        </mxCell>
        <mxCell id="4kLDl25QIKVFQ8sIAu_H-16" style="edgeStyle=orthogonalEdgeStyle;rounded=0;orthogonalLoop=1;jettySize=auto;html=1;strokeColor=#A8201A;fontColor=default;fillColor=#FAE5C7;endArrow=none;endFill=0;exitX=0.75;exitY=0;exitDx=0;exitDy=0;labelBackgroundColor=none;" parent="4kLDl25QIKVFQ8sIAu_H-2" source="4kLDl25QIKVFQ8sIAu_H-14" edge="1">
          <mxGeometry relative="1" as="geometry">
            <mxPoint x="140" y="120" as="targetPoint" />
            <Array as="points">
              <mxPoint x="217" y="120" />
            </Array>
          </mxGeometry>
        </mxCell>
        <mxCell id="4kLDl25QIKVFQ8sIAu_H-18" style="edgeStyle=orthogonalEdgeStyle;rounded=0;orthogonalLoop=1;jettySize=auto;html=1;strokeColor=#A8201A;fontColor=default;fillColor=#FAE5C7;entryX=0.25;entryY=0;entryDx=0;entryDy=0;labelBackgroundColor=none;" parent="4kLDl25QIKVFQ8sIAu_H-2" target="4kLDl25QIKVFQ8sIAu_H-14" edge="1">
          <mxGeometry relative="1" as="geometry">
            <mxPoint x="107" y="110" as="sourcePoint" />
            <Array as="points">
              <mxPoint x="182" y="110" />
            </Array>
          </mxGeometry>
        </mxCell>
        <mxCell id="4kLDl25QIKVFQ8sIAu_H-28" style="edgeStyle=orthogonalEdgeStyle;rounded=0;orthogonalLoop=1;jettySize=auto;html=1;strokeColor=#A8201A;fontColor=default;fillColor=#FAE5C7;exitX=0.25;exitY=1;exitDx=0;exitDy=0;entryX=0;entryY=0.5;entryDx=0;entryDy=0;labelBackgroundColor=none;" parent="4kLDl25QIKVFQ8sIAu_H-2" source="4kLDl25QIKVFQ8sIAu_H-14" target="4kLDl25QIKVFQ8sIAu_H-29" edge="1">
          <mxGeometry relative="1" as="geometry">
            <mxPoint x="180" y="230" as="targetPoint" />
          </mxGeometry>
        </mxCell>
        <mxCell id="4kLDl25QIKVFQ8sIAu_H-14" value="12V Regulator" style="rounded=0;whiteSpace=wrap;html=1;strokeColor=#0F8B8D;fontColor=#143642;fillColor=#FAE5C7;labelBackgroundColor=none;" parent="4kLDl25QIKVFQ8sIAu_H-2" vertex="1">
          <mxGeometry x="164.51" y="140" width="70" height="60" as="geometry" />
        </mxCell>
        <mxCell id="CXnemEisMQlB7KgPm6j0-25" style="edgeStyle=orthogonalEdgeStyle;shape=connector;rounded=0;orthogonalLoop=1;jettySize=auto;html=1;strokeColor=#A8201A;align=center;verticalAlign=middle;fontFamily=Helvetica;fontSize=11;fontColor=default;labelBackgroundColor=none;endArrow=classic;fillColor=#FAE5C7;" parent="4kLDl25QIKVFQ8sIAu_H-2" source="4kLDl25QIKVFQ8sIAu_H-26" edge="1">
          <mxGeometry relative="1" as="geometry">
            <mxPoint x="680" y="430" as="targetPoint" />
            <Array as="points">
              <mxPoint x="270" y="295" />
              <mxPoint x="270" y="430" />
            </Array>
          </mxGeometry>
        </mxCell>
        <mxCell id="4kLDl25QIKVFQ8sIAu_H-26" value="TBD&lt;div&gt;Fuse&lt;/div&gt;" style="whiteSpace=wrap;html=1;strokeColor=#0F8B8D;fontColor=#143642;fillColor=#FAE5C7;labelBackgroundColor=none;" parent="4kLDl25QIKVFQ8sIAu_H-2" vertex="1">
          <mxGeometry x="210" y="280" width="50" height="30" as="geometry" />
        </mxCell>
        <mxCell id="4kLDl25QIKVFQ8sIAu_H-29" value="TBD&lt;div&gt;Fuse&lt;/div&gt;" style="whiteSpace=wrap;html=1;strokeColor=#0F8B8D;fontColor=#143642;fillColor=#FAE5C7;labelBackgroundColor=none;" parent="4kLDl25QIKVFQ8sIAu_H-2" vertex="1">
          <mxGeometry x="210" y="230" width="50" height="30" as="geometry" />
        </mxCell>
        <mxCell id="4kLDl25QIKVFQ8sIAu_H-21" value="&lt;font style=&quot;font-size: 8px;&quot;&gt;Emergency Stop&lt;/font&gt;" style="shape=cylinder3;whiteSpace=wrap;html=1;boundedLbl=1;backgroundOutline=1;size=15;strokeColor=#0F8B8D;fontColor=#143642;fillColor=#FAE5C7;spacingTop=-41;fontSize=8;labelBackgroundColor=none;" parent="4kLDl25QIKVFQ8sIAu_H-2" vertex="1">
          <mxGeometry x="234.51" y="45" width="50" height="50" as="geometry" />
        </mxCell>
        <mxCell id="4kLDl25QIKVFQ8sIAu_H-11" style="edgeStyle=orthogonalEdgeStyle;rounded=0;orthogonalLoop=1;jettySize=auto;html=1;exitX=1;exitY=0.5;exitDx=0;exitDy=0;strokeColor=#A8201A;fontColor=default;fillColor=#FAE5C7;shape=link;width=12.325581395348838;entryX=0;entryY=0.5;entryDx=0;entryDy=0;entryPerimeter=0;labelBackgroundColor=none;" parent="4kLDl25QIKVFQ8sIAu_H-2" source="4kLDl25QIKVFQ8sIAu_H-9" target="4kLDl25QIKVFQ8sIAu_H-21" edge="1">
          <mxGeometry relative="1" as="geometry">
            <mxPoint x="240" y="60" as="targetPoint" />
          </mxGeometry>
        </mxCell>
        <mxCell id="i5OIsY9urdnVdyhrmxkR-5" style="edgeStyle=orthogonalEdgeStyle;rounded=0;orthogonalLoop=1;jettySize=auto;html=1;fontFamily=Helvetica;fontSize=12;fontColor=default;exitX=1;exitY=0.25;exitDx=0;exitDy=0;exitPerimeter=0;endArrow=classic;endFill=1;labelBackgroundColor=none;strokeColor=#A8201A;" edge="1" parent="4kLDl25QIKVFQ8sIAu_H-2" source="i5OIsY9urdnVdyhrmxkR-4">
          <mxGeometry relative="1" as="geometry">
            <mxPoint x="69" y="45" as="targetPoint" />
          </mxGeometry>
        </mxCell>
        <mxCell id="i5OIsY9urdnVdyhrmxkR-6" style="edgeStyle=orthogonalEdgeStyle;rounded=0;orthogonalLoop=1;jettySize=auto;html=1;fontFamily=Helvetica;fontSize=12;fontColor=default;strokeColor=#A8201A;endArrow=none;endFill=0;exitX=0;exitY=0.25;exitDx=0;exitDy=0;exitPerimeter=0;labelBackgroundColor=none;startArrow=classic;startFill=1;" edge="1" parent="4kLDl25QIKVFQ8sIAu_H-2" source="i5OIsY9urdnVdyhrmxkR-4">
          <mxGeometry relative="1" as="geometry">
            <mxPoint x="40" y="100" as="targetPoint" />
            <Array as="points">
              <mxPoint x="10" y="170" />
              <mxPoint x="10" y="100" />
            </Array>
          </mxGeometry>
        </mxCell>
        <mxCell id="i5OIsY9urdnVdyhrmxkR-4" value="24V&lt;div&gt;200-300W&lt;/div&gt;&lt;div&gt;Barrel Jack&lt;/div&gt;" style="pointerEvents=1;verticalLabelPosition=bottom;shadow=0;dashed=0;align=center;html=1;verticalAlign=top;shape=mxgraph.electrical.miscellaneous.shielded_jack_plug;rounded=0;strokeColor=#0F8B8D;fontFamily=Helvetica;fontSize=12;fontColor=#143642;fillColor=#FAE5C7;labelBackgroundColor=none;" vertex="1" parent="4kLDl25QIKVFQ8sIAu_H-2">
          <mxGeometry x="30" y="160" width="19" height="40" as="geometry" />
        </mxCell>
        <mxCell id="CXnemEisMQlB7KgPm6j0-1" value="Onboard Compute Subsystem" style="swimlane;whiteSpace=wrap;html=1;fillColor=#FAE5C7;collapsible=0;strokeWidth=1;strokeColor=#0F8B8D;labelBackgroundColor=none;fontColor=#143642;" parent="1" vertex="1">
          <mxGeometry x="330" y="550" width="380" height="260" as="geometry" />
        </mxCell>
        <mxCell id="CXnemEisMQlB7KgPm6j0-29" style="edgeStyle=orthogonalEdgeStyle;shape=link;rounded=0;orthogonalLoop=1;jettySize=auto;html=1;entryX=0;entryY=0.5;entryDx=0;entryDy=0;strokeColor=#A8201A;align=center;verticalAlign=middle;fontFamily=Helvetica;fontSize=12;fontColor=default;labelBackgroundColor=none;endArrow=classic;fillColor=#FAE5C7;width=4;flowAnimation=0;shadow=0;" parent="CXnemEisMQlB7KgPm6j0-1" source="i5OIsY9urdnVdyhrmxkR-90" target="CXnemEisMQlB7KgPm6j0-28" edge="1">
          <mxGeometry relative="1" as="geometry" />
        </mxCell>
        <mxCell id="CXnemEisMQlB7KgPm6j0-32" value="" style="edgeStyle=orthogonalEdgeStyle;shape=link;rounded=0;orthogonalLoop=1;jettySize=auto;html=1;strokeColor=#A8201A;align=center;verticalAlign=middle;fontFamily=Helvetica;fontSize=12;fontColor=default;labelBackgroundColor=none;endArrow=classic;fillColor=#FAE5C7;exitX=0.444;exitY=0.714;exitDx=0;exitDy=0;entryX=0.383;entryY=0.007;entryDx=0;entryDy=0;exitPerimeter=0;entryPerimeter=0;" parent="CXnemEisMQlB7KgPm6j0-1" source="i5OIsY9urdnVdyhrmxkR-95" target="CXnemEisMQlB7KgPm6j0-31" edge="1">
          <mxGeometry relative="1" as="geometry" />
        </mxCell>
        <mxCell id="CXnemEisMQlB7KgPm6j0-27" value="Jetson Xavier NX Developer Board" style="whiteSpace=wrap;html=1;rounded=0;strokeColor=#0F8B8D;align=center;verticalAlign=middle;fontFamily=Helvetica;fontSize=12;fontColor=#143642;fillColor=#FAE5C7;labelBackgroundColor=none;" parent="CXnemEisMQlB7KgPm6j0-1" vertex="1">
          <mxGeometry x="13.789999999999992" y="40" width="120" height="60" as="geometry" />
        </mxCell>
        <mxCell id="i5OIsY9urdnVdyhrmxkR-74" style="edgeStyle=orthogonalEdgeStyle;rounded=0;orthogonalLoop=1;jettySize=auto;html=1;strokeColor=#A8201A;fontColor=#143642;fillColor=#FAE5C7;entryX=0.75;entryY=0;entryDx=0;entryDy=0;" edge="1" parent="CXnemEisMQlB7KgPm6j0-1" target="i5OIsY9urdnVdyhrmxkR-51">
          <mxGeometry relative="1" as="geometry">
            <mxPoint x="210" y="330" as="targetPoint" />
            <mxPoint x="310" y="91" as="sourcePoint" />
            <Array as="points">
              <mxPoint x="310" y="320" />
              <mxPoint x="210" y="320" />
            </Array>
          </mxGeometry>
        </mxCell>
        <mxCell id="i5OIsY9urdnVdyhrmxkR-77" value="S1" style="edgeLabel;html=1;align=center;verticalAlign=middle;resizable=0;points=[];strokeColor=#0F8B8D;fontColor=#143642;fillColor=#FAE5C7;" vertex="1" connectable="0" parent="i5OIsY9urdnVdyhrmxkR-74">
          <mxGeometry x="0.9112" y="-3" relative="1" as="geometry">
            <mxPoint x="14" y="9" as="offset" />
          </mxGeometry>
        </mxCell>
        <mxCell id="CXnemEisMQlB7KgPm6j0-28" value="Teensy 4.1" style="rounded=0;whiteSpace=wrap;html=1;strokeColor=#0F8B8D;align=center;verticalAlign=middle;fontFamily=Helvetica;fontSize=12;fontColor=#143642;fillColor=#FAE5C7;labelBackgroundColor=none;" parent="CXnemEisMQlB7KgPm6j0-1" vertex="1">
          <mxGeometry x="200" y="50" width="160" height="40" as="geometry" />
        </mxCell>
        <mxCell id="CXnemEisMQlB7KgPm6j0-33" style="edgeStyle=orthogonalEdgeStyle;shape=link;rounded=0;orthogonalLoop=1;jettySize=auto;html=1;strokeColor=#A8201A;align=center;verticalAlign=middle;fontFamily=Helvetica;fontSize=12;fontColor=default;labelBackgroundColor=none;endArrow=classic;fillColor=#FAE5C7;entryX=0.59;entryY=0;entryDx=0;entryDy=0;entryPerimeter=0;exitX=0.166;exitY=0.964;exitDx=0;exitDy=0;exitPerimeter=0;" parent="CXnemEisMQlB7KgPm6j0-1" edge="1" target="CXnemEisMQlB7KgPm6j0-34" source="CXnemEisMQlB7KgPm6j0-31">
          <mxGeometry relative="1" as="geometry">
            <mxPoint x="70" y="180" as="targetPoint" />
            <mxPoint x="70.0175438596491" y="160" as="sourcePoint" />
          </mxGeometry>
        </mxCell>
        <mxCell id="CXnemEisMQlB7KgPm6j0-31" value="4x USB 3.1&lt;div&gt;USB Hub&lt;/div&gt;" style="whiteSpace=wrap;html=1;fillColor=#FAE5C7;strokeColor=#0F8B8D;fontColor=#143642;rounded=0;labelBackgroundColor=none;" parent="CXnemEisMQlB7KgPm6j0-1" vertex="1">
          <mxGeometry x="50" y="130" width="160" height="30" as="geometry" />
        </mxCell>
        <mxCell id="CXnemEisMQlB7KgPm6j0-34" value="" style="points=[[0,0.5,0],[0.19,0.02,0],[0.59,0,0],[0.985,0.02,0],[1,0.5,0],[0.985,0.98,0],[0.59,1,0],[0.19,0.98,0]];verticalLabelPosition=bottom;sketch=0;html=1;verticalAlign=top;aspect=fixed;align=center;pointerEvents=1;shape=mxgraph.cisco19.camera;fillColor=#0f8b8d;strokeColor=none;rounded=0;fontFamily=Helvetica;fontSize=12;fontColor=#143642;strokeWidth=1;perimeterSpacing=0;labelBackgroundColor=#0f8b8d;" parent="CXnemEisMQlB7KgPm6j0-1" vertex="1">
          <mxGeometry x="55.79" y="210" width="36" height="20" as="geometry" />
        </mxCell>
        <mxCell id="CXnemEisMQlB7KgPm6j0-35" style="edgeStyle=orthogonalEdgeStyle;shape=link;rounded=0;orthogonalLoop=1;jettySize=auto;html=1;strokeColor=#A8201A;align=center;verticalAlign=middle;fontFamily=Helvetica;fontSize=12;fontColor=default;labelBackgroundColor=none;endArrow=classic;fillColor=#FAE5C7;entryX=0.59;entryY=0;entryDx=0;entryDy=0;entryPerimeter=0;exitX=0.415;exitY=1.005;exitDx=0;exitDy=0;exitPerimeter=0;" parent="CXnemEisMQlB7KgPm6j0-1" edge="1" target="CXnemEisMQlB7KgPm6j0-36" source="CXnemEisMQlB7KgPm6j0-31">
          <mxGeometry relative="1" as="geometry">
            <mxPoint x="112" y="180" as="targetPoint" />
            <mxPoint x="112.0175438596491" y="160" as="sourcePoint" />
          </mxGeometry>
        </mxCell>
        <mxCell id="CXnemEisMQlB7KgPm6j0-36" value="" style="points=[[0,0.5,0],[0.19,0.02,0],[0.59,0,0],[0.985,0.02,0],[1,0.5,0],[0.985,0.98,0],[0.59,1,0],[0.19,0.98,0]];verticalLabelPosition=bottom;sketch=0;html=1;verticalAlign=top;aspect=fixed;align=center;pointerEvents=1;shape=mxgraph.cisco19.camera;fillColor=#0f8b8d;strokeColor=none;rounded=0;fontFamily=Helvetica;fontSize=12;fontColor=#143642;strokeWidth=1;perimeterSpacing=0;labelBackgroundColor=#0f8b8d;" parent="CXnemEisMQlB7KgPm6j0-1" vertex="1">
          <mxGeometry x="95" y="210" width="36" height="20" as="geometry" />
        </mxCell>
        <mxCell id="CXnemEisMQlB7KgPm6j0-37" style="edgeStyle=orthogonalEdgeStyle;shape=link;rounded=0;orthogonalLoop=1;jettySize=auto;html=1;strokeColor=#A8201A;align=center;verticalAlign=middle;fontFamily=Helvetica;fontSize=12;fontColor=default;labelBackgroundColor=none;endArrow=classic;fillColor=#FAE5C7;entryX=0.59;entryY=0;entryDx=0;entryDy=0;entryPerimeter=0;exitX=0.659;exitY=1;exitDx=0;exitDy=0;exitPerimeter=0;" parent="CXnemEisMQlB7KgPm6j0-1" edge="1" target="CXnemEisMQlB7KgPm6j0-38" source="CXnemEisMQlB7KgPm6j0-31">
          <mxGeometry relative="1" as="geometry">
            <mxPoint x="153.79" y="180" as="targetPoint" />
            <mxPoint x="153.8075438596491" y="160" as="sourcePoint" />
          </mxGeometry>
        </mxCell>
        <mxCell id="CXnemEisMQlB7KgPm6j0-38" value="" style="points=[[0,0.5,0],[0.19,0.02,0],[0.59,0,0],[0.985,0.02,0],[1,0.5,0],[0.985,0.98,0],[0.59,1,0],[0.19,0.98,0]];verticalLabelPosition=bottom;sketch=0;html=1;verticalAlign=top;aspect=fixed;align=center;pointerEvents=1;shape=mxgraph.cisco19.camera;fillColor=#0f8b8d;strokeColor=none;rounded=0;fontFamily=Helvetica;fontSize=12;fontColor=#143642;strokeWidth=1;perimeterSpacing=0;labelBackgroundColor=#0f8b8d;" parent="CXnemEisMQlB7KgPm6j0-1" vertex="1">
          <mxGeometry x="133.79" y="210" width="36" height="20" as="geometry" />
        </mxCell>
        <mxCell id="CXnemEisMQlB7KgPm6j0-40" style="edgeStyle=orthogonalEdgeStyle;shape=link;rounded=0;orthogonalLoop=1;jettySize=auto;html=1;strokeColor=#A8201A;align=center;verticalAlign=middle;fontFamily=Helvetica;fontSize=12;fontColor=default;labelBackgroundColor=none;endArrow=classic;fillColor=#FAE5C7;entryX=0.25;entryY=0;entryDx=0;entryDy=0;" parent="CXnemEisMQlB7KgPm6j0-1" edge="1" target="i5OIsY9urdnVdyhrmxkR-7">
          <mxGeometry relative="1" as="geometry">
            <mxPoint x="194" y="180" as="targetPoint" />
            <mxPoint x="194.0175438596491" y="160" as="sourcePoint" />
            <Array as="points">
              <mxPoint x="194" y="190" />
            </Array>
          </mxGeometry>
        </mxCell>
        <mxCell id="i5OIsY9urdnVdyhrmxkR-7" value="ZED F9P&lt;div&gt;GPS Module&lt;/div&gt;" style="whiteSpace=wrap;html=1;rounded=0;strokeColor=#0F8B8D;align=center;verticalAlign=middle;fontFamily=Helvetica;fontSize=12;fontColor=#143642;fillColor=#FAE5C7;labelBackgroundColor=none;" vertex="1" parent="CXnemEisMQlB7KgPm6j0-1">
          <mxGeometry x="180" y="190" width="60" height="60" as="geometry" />
        </mxCell>
        <mxCell id="i5OIsY9urdnVdyhrmxkR-10" value="" style="edgeStyle=orthogonalEdgeStyle;rounded=0;orthogonalLoop=1;jettySize=auto;html=1;fontFamily=Helvetica;fontSize=12;fontColor=default;exitX=0.5;exitY=1;exitDx=0;exitDy=0;exitPerimeter=0;endArrow=none;endFill=0;entryX=1;entryY=0.75;entryDx=0;entryDy=0;labelBackgroundColor=none;strokeColor=#A8201A;" edge="1" parent="CXnemEisMQlB7KgPm6j0-1" source="i5OIsY9urdnVdyhrmxkR-9" target="i5OIsY9urdnVdyhrmxkR-7">
          <mxGeometry relative="1" as="geometry">
            <mxPoint x="290" y="190" as="targetPoint" />
            <Array as="points">
              <mxPoint x="240" y="240" />
            </Array>
          </mxGeometry>
        </mxCell>
        <mxCell id="i5OIsY9urdnVdyhrmxkR-9" value="" style="verticalLabelPosition=bottom;shadow=0;dashed=0;align=center;html=1;verticalAlign=top;shape=mxgraph.electrical.radio.aerial_-_antenna_2;rounded=0;strokeColor=#0F8B8D;fontFamily=Helvetica;fontSize=12;fontColor=#143642;fillColor=#FAE5C7;labelBackgroundColor=none;" vertex="1" parent="CXnemEisMQlB7KgPm6j0-1">
          <mxGeometry x="250" y="190" width="39" height="50" as="geometry" />
        </mxCell>
        <mxCell id="i5OIsY9urdnVdyhrmxkR-91" value="" style="edgeStyle=orthogonalEdgeStyle;shape=link;rounded=0;orthogonalLoop=1;jettySize=auto;html=1;entryX=0;entryY=0.5;entryDx=0;entryDy=0;strokeColor=#A8201A;align=center;verticalAlign=middle;fontFamily=Helvetica;fontSize=12;fontColor=default;labelBackgroundColor=none;endArrow=classic;fillColor=#FAE5C7;width=4;flowAnimation=0;shadow=0;" edge="1" parent="CXnemEisMQlB7KgPm6j0-1" source="CXnemEisMQlB7KgPm6j0-27" target="i5OIsY9urdnVdyhrmxkR-90">
          <mxGeometry relative="1" as="geometry">
            <mxPoint x="464" y="610" as="sourcePoint" />
            <mxPoint x="530" y="610" as="targetPoint" />
          </mxGeometry>
        </mxCell>
        <mxCell id="i5OIsY9urdnVdyhrmxkR-90" value="" style="sketch=0;aspect=fixed;pointerEvents=1;shadow=0;dashed=0;html=1;strokeColor=none;labelPosition=center;verticalLabelPosition=bottom;verticalAlign=top;align=center;fillColor=#00188D;shape=mxgraph.mscae.enterprise.usb;fontColor=#143642;" vertex="1" parent="CXnemEisMQlB7KgPm6j0-1">
          <mxGeometry x="155" y="65" width="21.74" height="10" as="geometry" />
        </mxCell>
        <mxCell id="i5OIsY9urdnVdyhrmxkR-95" value="" style="sketch=0;aspect=fixed;pointerEvents=1;shadow=0;dashed=0;html=1;strokeColor=none;labelPosition=center;verticalLabelPosition=bottom;verticalAlign=top;align=center;fillColor=#00188D;shape=mxgraph.mscae.enterprise.usb;fontColor=#143642;" vertex="1" parent="CXnemEisMQlB7KgPm6j0-1">
          <mxGeometry x="103" y="111" width="21.74" height="10" as="geometry" />
        </mxCell>
        <mxCell id="i5OIsY9urdnVdyhrmxkR-96" value="" style="edgeStyle=orthogonalEdgeStyle;shape=link;rounded=0;orthogonalLoop=1;jettySize=auto;html=1;strokeColor=#A8201A;align=center;verticalAlign=middle;fontFamily=Helvetica;fontSize=12;fontColor=default;labelBackgroundColor=none;endArrow=classic;fillColor=#FAE5C7;exitX=0.814;exitY=1;exitDx=0;exitDy=0;entryX=0.383;entryY=0.007;entryDx=0;entryDy=0;exitPerimeter=0;entryPerimeter=0;" edge="1" parent="CXnemEisMQlB7KgPm6j0-1" source="CXnemEisMQlB7KgPm6j0-27" target="i5OIsY9urdnVdyhrmxkR-95">
          <mxGeometry relative="1" as="geometry">
            <mxPoint x="440" y="640" as="sourcePoint" />
            <mxPoint x="441" y="670" as="targetPoint" />
          </mxGeometry>
        </mxCell>
        <mxCell id="i5OIsY9urdnVdyhrmxkR-106" style="edgeStyle=orthogonalEdgeStyle;rounded=0;orthogonalLoop=1;jettySize=auto;html=1;entryX=0.25;entryY=1;entryDx=0;entryDy=0;strokeColor=#A8201A;fontColor=#143642;fillColor=#FAE5C7;exitX=0.5;exitY=0;exitDx=0;exitDy=0;shape=link;" edge="1" parent="CXnemEisMQlB7KgPm6j0-1" source="i5OIsY9urdnVdyhrmxkR-105" target="CXnemEisMQlB7KgPm6j0-28">
          <mxGeometry relative="1" as="geometry" />
        </mxCell>
        <mxCell id="i5OIsY9urdnVdyhrmxkR-105" value="&lt;font style=&quot;font-size: 9px;&quot;&gt;CAN&lt;/font&gt;" style="shape=offPageConnector;whiteSpace=wrap;html=1;rotation=90;horizontal=1;flipV=1;labelBackgroundColor=none;fillColor=#FAE5C7;strokeColor=#0F8B8D;fontColor=#143642;" vertex="1" parent="CXnemEisMQlB7KgPm6j0-1">
          <mxGeometry x="210" y="106" width="30" height="20" as="geometry" />
        </mxCell>
        <mxCell id="6z_8afMqLUwwlyAEEc4o-169" value="Battery Subsystem" style="swimlane;whiteSpace=wrap;html=1;strokeColor=#0F8B8D;fillColor=#FAE5C7;collapsible=0;labelBackgroundColor=none;fontColor=#143642;" parent="1" vertex="1">
          <mxGeometry x="10" y="20" width="700" height="520" as="geometry" />
        </mxCell>
        <mxCell id="nOU4_NgVh6XaABi12xhm-1" value="Battery Enclosure" style="swimlane;whiteSpace=wrap;html=1;spacingLeft=1;labelBackgroundColor=none;fillColor=#FAE5C7;strokeColor=#0F8B8D;fontColor=#143642;rounded=0;collapsible=0;" parent="6z_8afMqLUwwlyAEEc4o-169" vertex="1">
          <mxGeometry x="10" y="30" width="160" height="230" as="geometry">
            <mxRectangle x="30" y="10" width="140" height="30" as="alternateBounds" />
          </mxGeometry>
        </mxCell>
        <mxCell id="6z_8afMqLUwwlyAEEc4o-11" style="edgeStyle=orthogonalEdgeStyle;rounded=0;orthogonalLoop=1;jettySize=auto;html=1;exitX=0.5;exitY=1;exitDx=0;exitDy=0;entryX=0.25;entryY=0;entryDx=0;entryDy=0;strokeColor=#A8201A;fontColor=default;fillColor=#FAE5C7;labelBackgroundColor=none;" parent="nOU4_NgVh6XaABi12xhm-1" source="6z_8afMqLUwwlyAEEc4o-6" target="nOU4_NgVh6XaABi12xhm-57" edge="1">
          <mxGeometry relative="1" as="geometry" />
        </mxCell>
        <mxCell id="6z_8afMqLUwwlyAEEc4o-12" style="edgeStyle=orthogonalEdgeStyle;rounded=0;orthogonalLoop=1;jettySize=auto;html=1;entryX=0.853;entryY=1;entryDx=0;entryDy=0;entryPerimeter=0;strokeColor=#A8201A;fontColor=default;fillColor=#FAE5C7;labelBackgroundColor=none;" parent="nOU4_NgVh6XaABi12xhm-1" source="nOU4_NgVh6XaABi12xhm-57" target="nOU4_NgVh6XaABi12xhm-2" edge="1">
          <mxGeometry relative="1" as="geometry">
            <mxPoint x="133.20000000000005" y="89.03999999999996" as="targetPoint" />
            <Array as="points">
              <mxPoint x="140" y="180" />
              <mxPoint x="140" y="180" />
            </Array>
          </mxGeometry>
        </mxCell>
        <mxCell id="nOU4_NgVh6XaABi12xhm-2" value="6S LiPo Battery&lt;div&gt;6000 mAh&lt;/div&gt;" style="rounded=0;whiteSpace=wrap;html=1;labelBackgroundColor=none;fillColor=#FAE5C7;strokeColor=#0F8B8D;fontColor=#143642;" parent="nOU4_NgVh6XaABi12xhm-1" vertex="1">
          <mxGeometry x="63.24000000000001" y="30" width="90" height="60" as="geometry" />
        </mxCell>
        <mxCell id="nOU4_NgVh6XaABi12xhm-8" value="&lt;pre style=&quot;font-size: 6px; line-height: 0%;&quot;&gt;Balancing Lead&lt;/pre&gt;" style="verticalLabelPosition=bottom;shadow=0;align=center;html=1;verticalAlign=top;shape=mxgraph.electrical.transmission.8_line_bus;rotation=-90;spacingLeft=0;spacingTop=-6;labelBackgroundColor=none;fillColor=#FAE5C7;strokeColor=#0F8B8D;fontColor=#143642;rounded=0;" parent="nOU4_NgVh6XaABi12xhm-1" vertex="1">
          <mxGeometry x="-20" y="139.26" width="119.51" height="21.91" as="geometry" />
        </mxCell>
        <mxCell id="6z_8afMqLUwwlyAEEc4o-162" style="edgeStyle=orthogonalEdgeStyle;rounded=0;orthogonalLoop=1;jettySize=auto;html=1;labelBackgroundColor=none;strokeColor=#A8201A;fontColor=default;" parent="nOU4_NgVh6XaABi12xhm-1" target="nOU4_NgVh6XaABi12xhm-57" edge="1">
          <mxGeometry relative="1" as="geometry">
            <mxPoint x="140" y="470" as="sourcePoint" />
            <Array as="points">
              <mxPoint x="140" y="350" />
              <mxPoint x="140" y="350" />
            </Array>
          </mxGeometry>
        </mxCell>
        <mxCell id="nOU4_NgVh6XaABi12xhm-57" value="&lt;font style=&quot;font-size: 9px;&quot;&gt;EC5 Connector&lt;/font&gt;" style="whiteSpace=wrap;html=1;strokeColor=#0F8B8D;fontColor=#143642;fillColor=#FAE5C7;rounded=0;labelBackgroundColor=none;" parent="nOU4_NgVh6XaABi12xhm-1" vertex="1">
          <mxGeometry x="108.24000000000001" y="210" width="45" height="30" as="geometry" />
        </mxCell>
        <mxCell id="6z_8afMqLUwwlyAEEc4o-6" value="40A Fuse" style="whiteSpace=wrap;html=1;strokeColor=#0F8B8D;fontColor=#143642;fillColor=#FAE5C7;labelBackgroundColor=none;" parent="nOU4_NgVh6XaABi12xhm-1" vertex="1">
          <mxGeometry x="90.00000000000001" y="123.99999999999999" width="35" height="48.09" as="geometry" />
        </mxCell>
        <mxCell id="6z_8afMqLUwwlyAEEc4o-13" value="" style="verticalLabelPosition=bottom;shadow=0;dashed=0;align=center;html=1;verticalAlign=top;shape=mxgraph.electrical.transmission.eightLineBusElbow;notch=180;strokeColor=#0F8B8D;fontColor=#143642;fillColor=#FAE5C7;rotation=-180;labelBackgroundColor=none;" parent="nOU4_NgVh6XaABi12xhm-1" vertex="1">
          <mxGeometry x="28.710000000000004" y="66" width="22.03" height="30" as="geometry" />
        </mxCell>
        <mxCell id="6z_8afMqLUwwlyAEEc4o-15" value="&lt;pre style=&quot;font-size: 6px; line-height: 0%;&quot;&gt;&lt;br&gt;&lt;/pre&gt;" style="verticalLabelPosition=bottom;shadow=0;align=center;html=1;verticalAlign=top;shape=mxgraph.electrical.transmission.8_line_bus;rotation=-180;spacingLeft=0;spacingTop=-6;labelBackgroundColor=none;fillColor=#FAE5C7;strokeColor=#0F8B8D;fontColor=#143642;rounded=0;" parent="nOU4_NgVh6XaABi12xhm-1" vertex="1">
          <mxGeometry x="48.77000000000001" y="66" width="15.02" height="21.91" as="geometry" />
        </mxCell>
        <mxCell id="6z_8afMqLUwwlyAEEc4o-3" value="Temp&lt;div&gt;Sensor&lt;/div&gt;" style="whiteSpace=wrap;html=1;labelBackgroundColor=none;fillColor=#FAE5C7;strokeColor=#0F8B8D;fontColor=#143642;" parent="nOU4_NgVh6XaABi12xhm-1" vertex="1">
          <mxGeometry x="6.800000000000008" y="30" width="41.97" height="30" as="geometry" />
        </mxCell>
        <mxCell id="6z_8afMqLUwwlyAEEc4o-18" style="edgeStyle=orthogonalEdgeStyle;rounded=0;orthogonalLoop=1;jettySize=auto;html=1;strokeColor=#A8201A;fontColor=default;fillColor=#FAE5C7;shape=link;labelBackgroundColor=none;" parent="nOU4_NgVh6XaABi12xhm-1" edge="1">
          <mxGeometry relative="1" as="geometry">
            <mxPoint x="18.660689655172444" y="58.89" as="sourcePoint" />
            <mxPoint x="19" y="210" as="targetPoint" />
            <Array as="points" />
          </mxGeometry>
        </mxCell>
        <mxCell id="6z_8afMqLUwwlyAEEc4o-170" style="edgeStyle=orthogonalEdgeStyle;rounded=0;orthogonalLoop=1;jettySize=auto;html=1;entryX=0.841;entryY=0.019;entryDx=0;entryDy=0;entryPerimeter=0;strokeColor=#A8201A;fontColor=default;fillColor=#FAE5C7;exitX=0.621;exitY=1.001;exitDx=0;exitDy=0;exitPerimeter=0;labelBackgroundColor=none;" parent="nOU4_NgVh6XaABi12xhm-1" source="nOU4_NgVh6XaABi12xhm-2" target="6z_8afMqLUwwlyAEEc4o-6" edge="1">
          <mxGeometry relative="1" as="geometry" />
        </mxCell>
        <mxCell id="6z_8afMqLUwwlyAEEc4o-166" value="" style="edgeStyle=orthogonalEdgeStyle;rounded=0;orthogonalLoop=1;jettySize=auto;html=1;exitX=1;exitY=0.5;exitDx=0;exitDy=0;entryX=0.5;entryY=0;entryDx=0;entryDy=0;labelBackgroundColor=none;strokeColor=#A8201A;fontColor=default;" parent="6z_8afMqLUwwlyAEEc4o-169" source="nOU4_NgVh6XaABi12xhm-118" target="6z_8afMqLUwwlyAEEc4o-165" edge="1">
          <mxGeometry relative="1" as="geometry">
            <Array as="points" />
          </mxGeometry>
        </mxCell>
        <mxCell id="nOU4_NgVh6XaABi12xhm-118" value="DALY Smart BMS" style="whiteSpace=wrap;html=1;strokeColor=#0F8B8D;fontColor=#143642;fillColor=#FAE5C7;labelBackgroundColor=none;" parent="6z_8afMqLUwwlyAEEc4o-169" vertex="1">
          <mxGeometry x="20.74" y="300" width="69.26" height="100" as="geometry" />
        </mxCell>
        <mxCell id="nOU4_NgVh6XaABi12xhm-53" value="&lt;pre style=&quot;font-size: 6px; line-height: 0%;&quot;&gt;&lt;br&gt;&lt;/pre&gt;" style="verticalLabelPosition=bottom;shadow=0;align=center;html=1;verticalAlign=top;shape=mxgraph.electrical.transmission.8_line_bus;rotation=90;spacingLeft=0;spacingTop=-6;labelBackgroundColor=none;fillColor=#FAE5C7;strokeColor=#0F8B8D;fontColor=#143642;rounded=0;" parent="6z_8afMqLUwwlyAEEc4o-169" vertex="1">
          <mxGeometry x="34.55000000000001" y="273.71000000000004" width="30.41" height="22.87" as="geometry" />
        </mxCell>
        <mxCell id="6z_8afMqLUwwlyAEEc4o-19" style="edgeStyle=elbowEdgeStyle;rounded=0;orthogonalLoop=1;jettySize=auto;html=1;strokeColor=#A8201A;fontColor=default;fillColor=#FAE5C7;shape=link;labelBackgroundColor=none;" parent="6z_8afMqLUwwlyAEEc4o-169" edge="1">
          <mxGeometry relative="1" as="geometry">
            <mxPoint x="29.055555555555543" y="270" as="sourcePoint" />
            <mxPoint x="29" y="300" as="targetPoint" />
          </mxGeometry>
        </mxCell>
        <mxCell id="6z_8afMqLUwwlyAEEc4o-20" style="edgeStyle=elbowEdgeStyle;rounded=0;orthogonalLoop=1;jettySize=auto;html=1;entryX=1;entryY=0.25;entryDx=0;entryDy=0;strokeColor=#A8201A;fontColor=default;fillColor=#FAE5C7;labelBackgroundColor=none;exitX=0.25;exitY=1;exitDx=0;exitDy=0;" parent="6z_8afMqLUwwlyAEEc4o-169" source="nOU4_NgVh6XaABi12xhm-57" target="nOU4_NgVh6XaABi12xhm-118" edge="1">
          <mxGeometry relative="1" as="geometry">
            <mxPoint x="130" y="270" as="sourcePoint" />
            <mxPoint x="130" y="341.21" as="targetPoint" />
            <Array as="points">
              <mxPoint x="129" y="310" />
            </Array>
          </mxGeometry>
        </mxCell>
        <mxCell id="nOU4_NgVh6XaABi12xhm-6" value="&lt;p style=&quot;line-height: 105%;&quot;&gt;9 Pin&lt;/p&gt;" style="pointerEvents=1;verticalLabelPosition=bottom;shadow=0;dashed=0;align=center;html=1;verticalAlign=top;shape=mxgraph.electrical.miscellaneous.small_d_connector;horizontal=1;spacingLeft=0;spacingBottom=0;spacing=0;spacingTop=-39;labelBackgroundColor=none;fillColor=#FAE5C7;strokeColor=#0F8B8D;fontColor=#143642;rounded=0;" parent="6z_8afMqLUwwlyAEEc4o-169" vertex="1">
          <mxGeometry x="16.80000000000001" y="240" width="65" height="30" as="geometry" />
        </mxCell>
        <mxCell id="6z_8afMqLUwwlyAEEc4o-168" style="edgeStyle=orthogonalEdgeStyle;rounded=0;orthogonalLoop=1;jettySize=auto;html=1;exitX=0.5;exitY=1;exitDx=0;exitDy=0;labelBackgroundColor=none;strokeColor=#A8201A;fontColor=default;" parent="6z_8afMqLUwwlyAEEc4o-169" source="6z_8afMqLUwwlyAEEc4o-165" edge="1">
          <mxGeometry relative="1" as="geometry">
            <mxPoint x="120" y="490" as="targetPoint" />
          </mxGeometry>
        </mxCell>
        <mxCell id="6z_8afMqLUwwlyAEEc4o-165" value="&lt;font style=&quot;font-size: 8px;&quot;&gt;DALY 40A Parallel module&lt;/font&gt;" style="whiteSpace=wrap;html=1;fillColor=#FAE5C7;strokeColor=#0F8B8D;fontColor=#143642;labelBackgroundColor=none;" parent="6z_8afMqLUwwlyAEEc4o-169" vertex="1">
          <mxGeometry x="100" y="400" width="40" height="50" as="geometry" />
        </mxCell>
        <mxCell id="6z_8afMqLUwwlyAEEc4o-171" value="Battery Enclosure" style="swimlane;whiteSpace=wrap;html=1;spacingLeft=1;labelBackgroundColor=none;fillColor=#FAE5C7;strokeColor=#0F8B8D;fontColor=#143642;rounded=0;collapsible=0;" parent="6z_8afMqLUwwlyAEEc4o-169" vertex="1">
          <mxGeometry x="180" y="30" width="160" height="230" as="geometry">
            <mxRectangle x="30" y="10" width="140" height="30" as="alternateBounds" />
          </mxGeometry>
        </mxCell>
        <mxCell id="6z_8afMqLUwwlyAEEc4o-172" style="edgeStyle=orthogonalEdgeStyle;rounded=0;orthogonalLoop=1;jettySize=auto;html=1;exitX=0.5;exitY=1;exitDx=0;exitDy=0;entryX=0.25;entryY=0;entryDx=0;entryDy=0;strokeColor=#A8201A;fontColor=default;fillColor=#FAE5C7;labelBackgroundColor=none;" parent="6z_8afMqLUwwlyAEEc4o-171" source="6z_8afMqLUwwlyAEEc4o-178" target="6z_8afMqLUwwlyAEEc4o-177" edge="1">
          <mxGeometry relative="1" as="geometry" />
        </mxCell>
        <mxCell id="6z_8afMqLUwwlyAEEc4o-173" style="edgeStyle=orthogonalEdgeStyle;rounded=0;orthogonalLoop=1;jettySize=auto;html=1;entryX=0.853;entryY=1;entryDx=0;entryDy=0;entryPerimeter=0;strokeColor=#A8201A;fontColor=default;fillColor=#FAE5C7;labelBackgroundColor=none;" parent="6z_8afMqLUwwlyAEEc4o-171" source="6z_8afMqLUwwlyAEEc4o-177" target="6z_8afMqLUwwlyAEEc4o-174" edge="1">
          <mxGeometry relative="1" as="geometry">
            <mxPoint x="133.20000000000005" y="89.03999999999996" as="targetPoint" />
            <Array as="points">
              <mxPoint x="140" y="180" />
              <mxPoint x="140" y="180" />
            </Array>
          </mxGeometry>
        </mxCell>
        <mxCell id="6z_8afMqLUwwlyAEEc4o-174" value="6S LiPo Battery&lt;div&gt;6000 mAh&lt;/div&gt;" style="rounded=0;whiteSpace=wrap;html=1;labelBackgroundColor=none;fillColor=#FAE5C7;strokeColor=#0F8B8D;fontColor=#143642;" parent="6z_8afMqLUwwlyAEEc4o-171" vertex="1">
          <mxGeometry x="63.24000000000001" y="30" width="90" height="60" as="geometry" />
        </mxCell>
        <mxCell id="6z_8afMqLUwwlyAEEc4o-175" value="&lt;pre style=&quot;font-size: 6px; line-height: 0%;&quot;&gt;Balancing Lead&lt;/pre&gt;" style="verticalLabelPosition=bottom;shadow=0;align=center;html=1;verticalAlign=top;shape=mxgraph.electrical.transmission.8_line_bus;rotation=-90;spacingLeft=0;spacingTop=-6;labelBackgroundColor=none;fillColor=#FAE5C7;strokeColor=#0F8B8D;fontColor=#143642;rounded=0;" parent="6z_8afMqLUwwlyAEEc4o-171" vertex="1">
          <mxGeometry x="-20" y="139.26" width="119.51" height="21.91" as="geometry" />
        </mxCell>
        <mxCell id="6z_8afMqLUwwlyAEEc4o-176" style="edgeStyle=orthogonalEdgeStyle;rounded=0;orthogonalLoop=1;jettySize=auto;html=1;labelBackgroundColor=none;strokeColor=#A8201A;fontColor=default;" parent="6z_8afMqLUwwlyAEEc4o-171" target="6z_8afMqLUwwlyAEEc4o-177" edge="1">
          <mxGeometry relative="1" as="geometry">
            <mxPoint x="140" y="470" as="sourcePoint" />
            <Array as="points">
              <mxPoint x="140" y="350" />
              <mxPoint x="140" y="350" />
            </Array>
          </mxGeometry>
        </mxCell>
        <mxCell id="6z_8afMqLUwwlyAEEc4o-177" value="&lt;font style=&quot;font-size: 9px;&quot;&gt;EC5 Connector&lt;/font&gt;" style="whiteSpace=wrap;html=1;strokeColor=#0F8B8D;fontColor=#143642;fillColor=#FAE5C7;rounded=0;labelBackgroundColor=none;" parent="6z_8afMqLUwwlyAEEc4o-171" vertex="1">
          <mxGeometry x="108.24000000000001" y="210" width="45" height="30" as="geometry" />
        </mxCell>
        <mxCell id="6z_8afMqLUwwlyAEEc4o-178" value="40A Fuse" style="whiteSpace=wrap;html=1;strokeColor=#0F8B8D;fontColor=#143642;fillColor=#FAE5C7;labelBackgroundColor=none;" parent="6z_8afMqLUwwlyAEEc4o-171" vertex="1">
          <mxGeometry x="90.00000000000001" y="123.99999999999999" width="35" height="48.09" as="geometry" />
        </mxCell>
        <mxCell id="6z_8afMqLUwwlyAEEc4o-179" value="" style="verticalLabelPosition=bottom;shadow=0;dashed=0;align=center;html=1;verticalAlign=top;shape=mxgraph.electrical.transmission.eightLineBusElbow;notch=180;strokeColor=#0F8B8D;fontColor=#143642;fillColor=#FAE5C7;rotation=-180;labelBackgroundColor=none;" parent="6z_8afMqLUwwlyAEEc4o-171" vertex="1">
          <mxGeometry x="28.710000000000004" y="66" width="22.03" height="30" as="geometry" />
        </mxCell>
        <mxCell id="6z_8afMqLUwwlyAEEc4o-180" value="&lt;pre style=&quot;font-size: 6px; line-height: 0%;&quot;&gt;&lt;br&gt;&lt;/pre&gt;" style="verticalLabelPosition=bottom;shadow=0;align=center;html=1;verticalAlign=top;shape=mxgraph.electrical.transmission.8_line_bus;rotation=-180;spacingLeft=0;spacingTop=-6;labelBackgroundColor=none;fillColor=#FAE5C7;strokeColor=#0F8B8D;fontColor=#143642;rounded=0;" parent="6z_8afMqLUwwlyAEEc4o-171" vertex="1">
          <mxGeometry x="48.77000000000001" y="66" width="15.02" height="21.91" as="geometry" />
        </mxCell>
        <mxCell id="6z_8afMqLUwwlyAEEc4o-181" value="Temp&lt;div&gt;Sensor&lt;/div&gt;" style="whiteSpace=wrap;html=1;labelBackgroundColor=none;fillColor=#FAE5C7;strokeColor=#0F8B8D;fontColor=#143642;" parent="6z_8afMqLUwwlyAEEc4o-171" vertex="1">
          <mxGeometry x="6.800000000000008" y="30" width="41.97" height="30" as="geometry" />
        </mxCell>
        <mxCell id="6z_8afMqLUwwlyAEEc4o-182" style="edgeStyle=orthogonalEdgeStyle;rounded=0;orthogonalLoop=1;jettySize=auto;html=1;strokeColor=#A8201A;fontColor=default;fillColor=#FAE5C7;shape=link;labelBackgroundColor=none;" parent="6z_8afMqLUwwlyAEEc4o-171" edge="1">
          <mxGeometry relative="1" as="geometry">
            <mxPoint x="18.660689655172444" y="58.89" as="sourcePoint" />
            <mxPoint x="19" y="210" as="targetPoint" />
            <Array as="points" />
          </mxGeometry>
        </mxCell>
        <mxCell id="6z_8afMqLUwwlyAEEc4o-183" style="edgeStyle=orthogonalEdgeStyle;rounded=0;orthogonalLoop=1;jettySize=auto;html=1;entryX=0.841;entryY=0.019;entryDx=0;entryDy=0;entryPerimeter=0;strokeColor=#A8201A;fontColor=default;fillColor=#FAE5C7;exitX=0.621;exitY=1.001;exitDx=0;exitDy=0;exitPerimeter=0;labelBackgroundColor=none;" parent="6z_8afMqLUwwlyAEEc4o-171" source="6z_8afMqLUwwlyAEEc4o-174" target="6z_8afMqLUwwlyAEEc4o-178" edge="1">
          <mxGeometry relative="1" as="geometry" />
        </mxCell>
        <mxCell id="CXnemEisMQlB7KgPm6j0-4" value="&lt;p style=&quot;line-height: 105%;&quot;&gt;9 Pin&lt;/p&gt;" style="pointerEvents=1;verticalLabelPosition=bottom;shadow=0;dashed=0;align=center;html=1;verticalAlign=top;shape=mxgraph.electrical.miscellaneous.small_d_connector;horizontal=1;spacingLeft=0;spacingBottom=0;spacing=0;spacingTop=-39;labelBackgroundColor=none;fillColor=#FAE5C7;strokeColor=#0F8B8D;fontColor=#143642;rounded=0;" parent="6z_8afMqLUwwlyAEEc4o-171" vertex="1">
          <mxGeometry x="7.260000000000019" y="210" width="65" height="30" as="geometry" />
        </mxCell>
        <mxCell id="6z_8afMqLUwwlyAEEc4o-184" value="" style="edgeStyle=orthogonalEdgeStyle;rounded=0;orthogonalLoop=1;jettySize=auto;html=1;exitX=1;exitY=0.5;exitDx=0;exitDy=0;entryX=0.5;entryY=0;entryDx=0;entryDy=0;labelBackgroundColor=none;strokeColor=#A8201A;fontColor=default;" parent="6z_8afMqLUwwlyAEEc4o-169" source="6z_8afMqLUwwlyAEEc4o-185" target="6z_8afMqLUwwlyAEEc4o-191" edge="1">
          <mxGeometry relative="1" as="geometry">
            <Array as="points" />
          </mxGeometry>
        </mxCell>
        <mxCell id="5vFk3YhiuI77391CFOQ8-2" style="edgeStyle=none;curved=1;rounded=0;orthogonalLoop=1;jettySize=auto;html=1;fontFamily=Architects Daughter;fontSource=https%3A%2F%2Ffonts.googleapis.com%2Fcss%3Ffamily%3DArchitects%2BDaughter;fontSize=16;endArrow=open;sourcePerimeterSpacing=8;targetPerimeterSpacing=8;shape=link;entryX=0.5;entryY=1;entryDx=0;entryDy=0;labelBackgroundColor=none;strokeColor=#A8201A;fontColor=default;" parent="6z_8afMqLUwwlyAEEc4o-169" target="6z_8afMqLUwwlyAEEc4o-185" edge="1">
          <mxGeometry relative="1" as="geometry">
            <mxPoint x="230" y="480" as="targetPoint" />
            <mxPoint x="225" y="470" as="sourcePoint" />
          </mxGeometry>
        </mxCell>
        <mxCell id="6z_8afMqLUwwlyAEEc4o-185" value="DALY Smart BMS" style="whiteSpace=wrap;html=1;strokeColor=#0F8B8D;fontColor=#143642;fillColor=#FAE5C7;labelBackgroundColor=none;" parent="6z_8afMqLUwwlyAEEc4o-169" vertex="1">
          <mxGeometry x="190.74" y="300" width="69.26" height="100" as="geometry" />
        </mxCell>
        <mxCell id="6z_8afMqLUwwlyAEEc4o-186" value="&lt;pre style=&quot;font-size: 6px; line-height: 0%;&quot;&gt;&lt;br&gt;&lt;/pre&gt;" style="verticalLabelPosition=bottom;shadow=0;align=center;html=1;verticalAlign=top;shape=mxgraph.electrical.transmission.8_line_bus;rotation=90;spacingLeft=0;spacingTop=-6;labelBackgroundColor=none;fillColor=#FAE5C7;strokeColor=#0F8B8D;fontColor=#143642;rounded=0;" parent="6z_8afMqLUwwlyAEEc4o-169" vertex="1">
          <mxGeometry x="204.55" y="273.71000000000004" width="30.41" height="22.87" as="geometry" />
        </mxCell>
        <mxCell id="6z_8afMqLUwwlyAEEc4o-187" style="edgeStyle=elbowEdgeStyle;rounded=0;orthogonalLoop=1;jettySize=auto;html=1;strokeColor=#A8201A;fontColor=default;fillColor=#FAE5C7;shape=link;labelBackgroundColor=none;" parent="6z_8afMqLUwwlyAEEc4o-169" edge="1">
          <mxGeometry relative="1" as="geometry">
            <mxPoint x="199.05555555555554" y="270" as="sourcePoint" />
            <mxPoint x="199" y="300" as="targetPoint" />
          </mxGeometry>
        </mxCell>
        <mxCell id="6z_8afMqLUwwlyAEEc4o-188" style="edgeStyle=elbowEdgeStyle;rounded=0;orthogonalLoop=1;jettySize=auto;html=1;entryX=1;entryY=0.25;entryDx=0;entryDy=0;strokeColor=#A8201A;fontColor=default;fillColor=#FAE5C7;labelBackgroundColor=none;exitX=0.25;exitY=1;exitDx=0;exitDy=0;" parent="6z_8afMqLUwwlyAEEc4o-169" source="6z_8afMqLUwwlyAEEc4o-177" target="6z_8afMqLUwwlyAEEc4o-185" edge="1">
          <mxGeometry relative="1" as="geometry">
            <mxPoint x="300" y="270" as="sourcePoint" />
            <mxPoint x="300" y="341.21" as="targetPoint" />
            <Array as="points">
              <mxPoint x="299" y="310" />
            </Array>
          </mxGeometry>
        </mxCell>
        <mxCell id="6z_8afMqLUwwlyAEEc4o-190" style="edgeStyle=orthogonalEdgeStyle;rounded=0;orthogonalLoop=1;jettySize=auto;html=1;exitX=0.5;exitY=1;exitDx=0;exitDy=0;labelBackgroundColor=none;strokeColor=#A8201A;fontColor=default;" parent="6z_8afMqLUwwlyAEEc4o-169" source="6z_8afMqLUwwlyAEEc4o-191" edge="1">
          <mxGeometry relative="1" as="geometry">
            <mxPoint x="290" y="490" as="targetPoint" />
          </mxGeometry>
        </mxCell>
        <mxCell id="6z_8afMqLUwwlyAEEc4o-191" value="&lt;font style=&quot;font-size: 8px;&quot;&gt;DALY 40A Parallel module&lt;/font&gt;" style="whiteSpace=wrap;html=1;fillColor=#FAE5C7;strokeColor=#0F8B8D;fontColor=#143642;labelBackgroundColor=none;" parent="6z_8afMqLUwwlyAEEc4o-169" vertex="1">
          <mxGeometry x="270" y="400" width="40" height="50" as="geometry" />
        </mxCell>
        <mxCell id="6z_8afMqLUwwlyAEEc4o-192" value="Battery Enclosure" style="swimlane;whiteSpace=wrap;html=1;spacingLeft=1;labelBackgroundColor=none;fillColor=#FAE5C7;strokeColor=#0F8B8D;fontColor=#143642;rounded=0;collapsible=0;" parent="6z_8afMqLUwwlyAEEc4o-169" vertex="1">
          <mxGeometry x="350" y="30" width="160" height="230" as="geometry">
            <mxRectangle x="30" y="10" width="140" height="30" as="alternateBounds" />
          </mxGeometry>
        </mxCell>
        <mxCell id="6z_8afMqLUwwlyAEEc4o-193" style="edgeStyle=orthogonalEdgeStyle;rounded=0;orthogonalLoop=1;jettySize=auto;html=1;exitX=0.5;exitY=1;exitDx=0;exitDy=0;entryX=0.25;entryY=0;entryDx=0;entryDy=0;strokeColor=#A8201A;fontColor=default;fillColor=#FAE5C7;labelBackgroundColor=none;" parent="6z_8afMqLUwwlyAEEc4o-192" source="6z_8afMqLUwwlyAEEc4o-199" target="6z_8afMqLUwwlyAEEc4o-198" edge="1">
          <mxGeometry relative="1" as="geometry" />
        </mxCell>
        <mxCell id="6z_8afMqLUwwlyAEEc4o-194" style="edgeStyle=orthogonalEdgeStyle;rounded=0;orthogonalLoop=1;jettySize=auto;html=1;entryX=0.853;entryY=1;entryDx=0;entryDy=0;entryPerimeter=0;strokeColor=#A8201A;fontColor=default;fillColor=#FAE5C7;labelBackgroundColor=none;" parent="6z_8afMqLUwwlyAEEc4o-192" source="6z_8afMqLUwwlyAEEc4o-198" target="6z_8afMqLUwwlyAEEc4o-195" edge="1">
          <mxGeometry relative="1" as="geometry">
            <mxPoint x="133.20000000000005" y="89.03999999999996" as="targetPoint" />
            <Array as="points">
              <mxPoint x="140" y="180" />
              <mxPoint x="140" y="180" />
            </Array>
          </mxGeometry>
        </mxCell>
        <mxCell id="6z_8afMqLUwwlyAEEc4o-195" value="6S LiPo Battery&lt;div&gt;6000 mAh&lt;/div&gt;" style="rounded=0;whiteSpace=wrap;html=1;labelBackgroundColor=none;fillColor=#FAE5C7;strokeColor=#0F8B8D;fontColor=#143642;" parent="6z_8afMqLUwwlyAEEc4o-192" vertex="1">
          <mxGeometry x="63.24000000000001" y="30" width="90" height="60" as="geometry" />
        </mxCell>
        <mxCell id="6z_8afMqLUwwlyAEEc4o-196" value="&lt;pre style=&quot;font-size: 6px; line-height: 0%;&quot;&gt;Balancing Lead&lt;/pre&gt;" style="verticalLabelPosition=bottom;shadow=0;align=center;html=1;verticalAlign=top;shape=mxgraph.electrical.transmission.8_line_bus;rotation=-90;spacingLeft=0;spacingTop=-6;labelBackgroundColor=none;fillColor=#FAE5C7;strokeColor=#0F8B8D;fontColor=#143642;rounded=0;" parent="6z_8afMqLUwwlyAEEc4o-192" vertex="1">
          <mxGeometry x="-20" y="139.26" width="119.51" height="21.91" as="geometry" />
        </mxCell>
        <mxCell id="6z_8afMqLUwwlyAEEc4o-197" style="edgeStyle=orthogonalEdgeStyle;rounded=0;orthogonalLoop=1;jettySize=auto;html=1;labelBackgroundColor=none;strokeColor=#A8201A;fontColor=default;" parent="6z_8afMqLUwwlyAEEc4o-192" target="6z_8afMqLUwwlyAEEc4o-198" edge="1">
          <mxGeometry relative="1" as="geometry">
            <mxPoint x="140" y="470" as="sourcePoint" />
            <Array as="points">
              <mxPoint x="140" y="350" />
              <mxPoint x="140" y="350" />
            </Array>
          </mxGeometry>
        </mxCell>
        <mxCell id="6z_8afMqLUwwlyAEEc4o-198" value="&lt;font style=&quot;font-size: 9px;&quot;&gt;EC5 Connector&lt;/font&gt;" style="whiteSpace=wrap;html=1;strokeColor=#0F8B8D;fontColor=#143642;fillColor=#FAE5C7;rounded=0;labelBackgroundColor=none;" parent="6z_8afMqLUwwlyAEEc4o-192" vertex="1">
          <mxGeometry x="108.24000000000001" y="210" width="45" height="30" as="geometry" />
        </mxCell>
        <mxCell id="6z_8afMqLUwwlyAEEc4o-199" value="40A Fuse" style="whiteSpace=wrap;html=1;strokeColor=#0F8B8D;fontColor=#143642;fillColor=#FAE5C7;labelBackgroundColor=none;" parent="6z_8afMqLUwwlyAEEc4o-192" vertex="1">
          <mxGeometry x="90.00000000000001" y="123.99999999999999" width="35" height="48.09" as="geometry" />
        </mxCell>
        <mxCell id="6z_8afMqLUwwlyAEEc4o-200" value="" style="verticalLabelPosition=bottom;shadow=0;dashed=0;align=center;html=1;verticalAlign=top;shape=mxgraph.electrical.transmission.eightLineBusElbow;notch=180;strokeColor=#0F8B8D;fontColor=#143642;fillColor=#FAE5C7;rotation=-180;labelBackgroundColor=none;" parent="6z_8afMqLUwwlyAEEc4o-192" vertex="1">
          <mxGeometry x="28.710000000000004" y="66" width="22.03" height="30" as="geometry" />
        </mxCell>
        <mxCell id="6z_8afMqLUwwlyAEEc4o-201" value="&lt;pre style=&quot;font-size: 6px; line-height: 0%;&quot;&gt;&lt;br&gt;&lt;/pre&gt;" style="verticalLabelPosition=bottom;shadow=0;align=center;html=1;verticalAlign=top;shape=mxgraph.electrical.transmission.8_line_bus;rotation=-180;spacingLeft=0;spacingTop=-6;labelBackgroundColor=none;fillColor=#FAE5C7;strokeColor=#0F8B8D;fontColor=#143642;rounded=0;" parent="6z_8afMqLUwwlyAEEc4o-192" vertex="1">
          <mxGeometry x="48.77000000000001" y="66" width="15.02" height="21.91" as="geometry" />
        </mxCell>
        <mxCell id="6z_8afMqLUwwlyAEEc4o-202" value="Temp&lt;div&gt;Sensor&lt;/div&gt;" style="whiteSpace=wrap;html=1;labelBackgroundColor=none;fillColor=#FAE5C7;strokeColor=#0F8B8D;fontColor=#143642;" parent="6z_8afMqLUwwlyAEEc4o-192" vertex="1">
          <mxGeometry x="6.800000000000008" y="30" width="41.97" height="30" as="geometry" />
        </mxCell>
        <mxCell id="6z_8afMqLUwwlyAEEc4o-203" style="edgeStyle=orthogonalEdgeStyle;rounded=0;orthogonalLoop=1;jettySize=auto;html=1;strokeColor=#A8201A;fontColor=default;fillColor=#FAE5C7;shape=link;labelBackgroundColor=none;" parent="6z_8afMqLUwwlyAEEc4o-192" edge="1">
          <mxGeometry relative="1" as="geometry">
            <mxPoint x="18.660689655172444" y="58.89" as="sourcePoint" />
            <mxPoint x="19" y="210" as="targetPoint" />
            <Array as="points" />
          </mxGeometry>
        </mxCell>
        <mxCell id="6z_8afMqLUwwlyAEEc4o-204" style="edgeStyle=orthogonalEdgeStyle;rounded=0;orthogonalLoop=1;jettySize=auto;html=1;entryX=0.841;entryY=0.019;entryDx=0;entryDy=0;entryPerimeter=0;strokeColor=#A8201A;fontColor=default;fillColor=#FAE5C7;exitX=0.621;exitY=1.001;exitDx=0;exitDy=0;exitPerimeter=0;labelBackgroundColor=none;" parent="6z_8afMqLUwwlyAEEc4o-192" source="6z_8afMqLUwwlyAEEc4o-195" target="6z_8afMqLUwwlyAEEc4o-199" edge="1">
          <mxGeometry relative="1" as="geometry" />
        </mxCell>
        <mxCell id="6z_8afMqLUwwlyAEEc4o-205" value="" style="edgeStyle=orthogonalEdgeStyle;rounded=0;orthogonalLoop=1;jettySize=auto;html=1;exitX=1;exitY=0.5;exitDx=0;exitDy=0;entryX=0.5;entryY=0;entryDx=0;entryDy=0;labelBackgroundColor=none;strokeColor=#A8201A;fontColor=default;" parent="6z_8afMqLUwwlyAEEc4o-169" source="6z_8afMqLUwwlyAEEc4o-206" target="6z_8afMqLUwwlyAEEc4o-212" edge="1">
          <mxGeometry relative="1" as="geometry">
            <Array as="points" />
          </mxGeometry>
        </mxCell>
        <mxCell id="6z_8afMqLUwwlyAEEc4o-206" value="DALY Smart BMS" style="whiteSpace=wrap;html=1;strokeColor=#0F8B8D;fontColor=#143642;fillColor=#FAE5C7;labelBackgroundColor=none;" parent="6z_8afMqLUwwlyAEEc4o-169" vertex="1">
          <mxGeometry x="360.74" y="300" width="69.26" height="100" as="geometry" />
        </mxCell>
        <mxCell id="6z_8afMqLUwwlyAEEc4o-207" value="&lt;pre style=&quot;font-size: 6px; line-height: 0%;&quot;&gt;&lt;br&gt;&lt;/pre&gt;" style="verticalLabelPosition=bottom;shadow=0;align=center;html=1;verticalAlign=top;shape=mxgraph.electrical.transmission.8_line_bus;rotation=90;spacingLeft=0;spacingTop=-6;labelBackgroundColor=none;fillColor=#FAE5C7;strokeColor=#0F8B8D;fontColor=#143642;rounded=0;" parent="6z_8afMqLUwwlyAEEc4o-169" vertex="1">
          <mxGeometry x="374.54999999999995" y="273.71000000000004" width="30.41" height="22.87" as="geometry" />
        </mxCell>
        <mxCell id="6z_8afMqLUwwlyAEEc4o-208" style="edgeStyle=elbowEdgeStyle;rounded=0;orthogonalLoop=1;jettySize=auto;html=1;strokeColor=#A8201A;fontColor=default;fillColor=#FAE5C7;shape=link;labelBackgroundColor=none;" parent="6z_8afMqLUwwlyAEEc4o-169" edge="1">
          <mxGeometry relative="1" as="geometry">
            <mxPoint x="369.05555555555554" y="270" as="sourcePoint" />
            <mxPoint x="369" y="300" as="targetPoint" />
          </mxGeometry>
        </mxCell>
        <mxCell id="6z_8afMqLUwwlyAEEc4o-209" style="edgeStyle=elbowEdgeStyle;rounded=0;orthogonalLoop=1;jettySize=auto;html=1;entryX=1;entryY=0.25;entryDx=0;entryDy=0;strokeColor=#A8201A;fontColor=default;fillColor=#FAE5C7;labelBackgroundColor=none;exitX=0.25;exitY=1;exitDx=0;exitDy=0;" parent="6z_8afMqLUwwlyAEEc4o-169" source="6z_8afMqLUwwlyAEEc4o-198" target="6z_8afMqLUwwlyAEEc4o-206" edge="1">
          <mxGeometry relative="1" as="geometry">
            <mxPoint x="470" y="270" as="sourcePoint" />
            <mxPoint x="470" y="341.21" as="targetPoint" />
            <Array as="points">
              <mxPoint x="469" y="310" />
            </Array>
          </mxGeometry>
        </mxCell>
        <mxCell id="6z_8afMqLUwwlyAEEc4o-211" style="edgeStyle=orthogonalEdgeStyle;rounded=0;orthogonalLoop=1;jettySize=auto;html=1;exitX=0.5;exitY=1;exitDx=0;exitDy=0;labelBackgroundColor=none;strokeColor=#A8201A;fontColor=default;" parent="6z_8afMqLUwwlyAEEc4o-169" source="6z_8afMqLUwwlyAEEc4o-212" edge="1">
          <mxGeometry relative="1" as="geometry">
            <mxPoint x="460" y="490" as="targetPoint" />
          </mxGeometry>
        </mxCell>
        <mxCell id="6z_8afMqLUwwlyAEEc4o-212" value="&lt;font style=&quot;font-size: 8px;&quot;&gt;DALY 40A Parallel module&lt;/font&gt;" style="whiteSpace=wrap;html=1;fillColor=#FAE5C7;strokeColor=#0F8B8D;fontColor=#143642;labelBackgroundColor=none;" parent="6z_8afMqLUwwlyAEEc4o-169" vertex="1">
          <mxGeometry x="440" y="400" width="40" height="50" as="geometry" />
        </mxCell>
        <mxCell id="6z_8afMqLUwwlyAEEc4o-213" value="Battery Enclosure" style="swimlane;whiteSpace=wrap;html=1;spacingLeft=1;labelBackgroundColor=none;fillColor=#FAE5C7;strokeColor=#0F8B8D;fontColor=#143642;rounded=0;collapsible=0;" parent="6z_8afMqLUwwlyAEEc4o-169" vertex="1">
          <mxGeometry x="520" y="30" width="160" height="230" as="geometry">
            <mxRectangle x="30" y="10" width="140" height="30" as="alternateBounds" />
          </mxGeometry>
        </mxCell>
        <mxCell id="6z_8afMqLUwwlyAEEc4o-214" style="edgeStyle=orthogonalEdgeStyle;rounded=0;orthogonalLoop=1;jettySize=auto;html=1;exitX=0.5;exitY=1;exitDx=0;exitDy=0;entryX=0.25;entryY=0;entryDx=0;entryDy=0;strokeColor=#A8201A;fontColor=default;fillColor=#FAE5C7;labelBackgroundColor=none;" parent="6z_8afMqLUwwlyAEEc4o-213" source="6z_8afMqLUwwlyAEEc4o-220" target="6z_8afMqLUwwlyAEEc4o-219" edge="1">
          <mxGeometry relative="1" as="geometry" />
        </mxCell>
        <mxCell id="6z_8afMqLUwwlyAEEc4o-215" style="edgeStyle=orthogonalEdgeStyle;rounded=0;orthogonalLoop=1;jettySize=auto;html=1;entryX=0.853;entryY=1;entryDx=0;entryDy=0;entryPerimeter=0;strokeColor=#A8201A;fontColor=default;fillColor=#FAE5C7;labelBackgroundColor=none;" parent="6z_8afMqLUwwlyAEEc4o-213" source="6z_8afMqLUwwlyAEEc4o-219" target="6z_8afMqLUwwlyAEEc4o-216" edge="1">
          <mxGeometry relative="1" as="geometry">
            <mxPoint x="133.20000000000005" y="89.03999999999996" as="targetPoint" />
            <Array as="points">
              <mxPoint x="140" y="180" />
              <mxPoint x="140" y="180" />
            </Array>
          </mxGeometry>
        </mxCell>
        <mxCell id="6z_8afMqLUwwlyAEEc4o-216" value="6S LiPo Battery&lt;div&gt;6000 mAh&lt;/div&gt;" style="rounded=0;whiteSpace=wrap;html=1;labelBackgroundColor=none;fillColor=#FAE5C7;strokeColor=#0F8B8D;fontColor=#143642;" parent="6z_8afMqLUwwlyAEEc4o-213" vertex="1">
          <mxGeometry x="63.24000000000001" y="30" width="90" height="60" as="geometry" />
        </mxCell>
        <mxCell id="6z_8afMqLUwwlyAEEc4o-217" value="&lt;pre style=&quot;font-size: 6px; line-height: 0%;&quot;&gt;Balancing Lead&lt;/pre&gt;" style="verticalLabelPosition=bottom;shadow=0;align=center;html=1;verticalAlign=top;shape=mxgraph.electrical.transmission.8_line_bus;rotation=-90;spacingLeft=0;spacingTop=-6;labelBackgroundColor=none;fillColor=#FAE5C7;strokeColor=#0F8B8D;fontColor=#143642;rounded=0;" parent="6z_8afMqLUwwlyAEEc4o-213" vertex="1">
          <mxGeometry x="-20" y="139.26" width="119.51" height="21.91" as="geometry" />
        </mxCell>
        <mxCell id="6z_8afMqLUwwlyAEEc4o-219" value="&lt;font style=&quot;font-size: 9px;&quot;&gt;EC5 Connector&lt;/font&gt;" style="whiteSpace=wrap;html=1;strokeColor=#0F8B8D;fontColor=#143642;fillColor=#FAE5C7;rounded=0;labelBackgroundColor=none;" parent="6z_8afMqLUwwlyAEEc4o-213" vertex="1">
          <mxGeometry x="108.24000000000001" y="210" width="45" height="30" as="geometry" />
        </mxCell>
        <mxCell id="6z_8afMqLUwwlyAEEc4o-220" value="40A Fuse" style="whiteSpace=wrap;html=1;strokeColor=#0F8B8D;fontColor=#143642;fillColor=#FAE5C7;labelBackgroundColor=none;" parent="6z_8afMqLUwwlyAEEc4o-213" vertex="1">
          <mxGeometry x="90.00000000000001" y="123.99999999999999" width="35" height="48.09" as="geometry" />
        </mxCell>
        <mxCell id="6z_8afMqLUwwlyAEEc4o-221" value="" style="verticalLabelPosition=bottom;shadow=0;dashed=0;align=center;html=1;verticalAlign=top;shape=mxgraph.electrical.transmission.eightLineBusElbow;notch=180;strokeColor=#0F8B8D;fontColor=#143642;fillColor=#FAE5C7;rotation=-180;labelBackgroundColor=none;" parent="6z_8afMqLUwwlyAEEc4o-213" vertex="1">
          <mxGeometry x="28.710000000000004" y="66" width="22.03" height="30" as="geometry" />
        </mxCell>
        <mxCell id="6z_8afMqLUwwlyAEEc4o-222" value="&lt;pre style=&quot;font-size: 6px; line-height: 0%;&quot;&gt;&lt;br&gt;&lt;/pre&gt;" style="verticalLabelPosition=bottom;shadow=0;align=center;html=1;verticalAlign=top;shape=mxgraph.electrical.transmission.8_line_bus;rotation=-180;spacingLeft=0;spacingTop=-6;labelBackgroundColor=none;fillColor=#FAE5C7;strokeColor=#0F8B8D;fontColor=#143642;rounded=0;" parent="6z_8afMqLUwwlyAEEc4o-213" vertex="1">
          <mxGeometry x="48.77000000000001" y="66" width="15.02" height="21.91" as="geometry" />
        </mxCell>
        <mxCell id="6z_8afMqLUwwlyAEEc4o-223" value="Temp&lt;div&gt;Sensor&lt;/div&gt;" style="whiteSpace=wrap;html=1;labelBackgroundColor=none;fillColor=#FAE5C7;strokeColor=#0F8B8D;fontColor=#143642;" parent="6z_8afMqLUwwlyAEEc4o-213" vertex="1">
          <mxGeometry x="6.800000000000008" y="30" width="41.97" height="30" as="geometry" />
        </mxCell>
        <mxCell id="6z_8afMqLUwwlyAEEc4o-224" style="edgeStyle=orthogonalEdgeStyle;rounded=0;orthogonalLoop=1;jettySize=auto;html=1;strokeColor=#A8201A;fontColor=default;fillColor=#FAE5C7;shape=link;labelBackgroundColor=none;" parent="6z_8afMqLUwwlyAEEc4o-213" edge="1">
          <mxGeometry relative="1" as="geometry">
            <mxPoint x="18.660689655172444" y="58.89" as="sourcePoint" />
            <mxPoint x="19" y="210" as="targetPoint" />
            <Array as="points" />
          </mxGeometry>
        </mxCell>
        <mxCell id="6z_8afMqLUwwlyAEEc4o-225" style="edgeStyle=orthogonalEdgeStyle;rounded=0;orthogonalLoop=1;jettySize=auto;html=1;entryX=0.841;entryY=0.019;entryDx=0;entryDy=0;entryPerimeter=0;strokeColor=#A8201A;fontColor=default;fillColor=#FAE5C7;exitX=0.621;exitY=1.001;exitDx=0;exitDy=0;exitPerimeter=0;labelBackgroundColor=none;" parent="6z_8afMqLUwwlyAEEc4o-213" source="6z_8afMqLUwwlyAEEc4o-216" target="6z_8afMqLUwwlyAEEc4o-220" edge="1">
          <mxGeometry relative="1" as="geometry" />
        </mxCell>
        <mxCell id="6z_8afMqLUwwlyAEEc4o-226" value="" style="edgeStyle=orthogonalEdgeStyle;rounded=0;orthogonalLoop=1;jettySize=auto;html=1;exitX=1;exitY=0.5;exitDx=0;exitDy=0;entryX=0.5;entryY=0;entryDx=0;entryDy=0;labelBackgroundColor=none;strokeColor=#A8201A;fontColor=default;" parent="6z_8afMqLUwwlyAEEc4o-169" source="6z_8afMqLUwwlyAEEc4o-227" target="6z_8afMqLUwwlyAEEc4o-233" edge="1">
          <mxGeometry relative="1" as="geometry">
            <Array as="points" />
          </mxGeometry>
        </mxCell>
        <mxCell id="6z_8afMqLUwwlyAEEc4o-227" value="DALY Smart BMS" style="whiteSpace=wrap;html=1;strokeColor=#0F8B8D;fontColor=#143642;fillColor=#FAE5C7;labelBackgroundColor=none;" parent="6z_8afMqLUwwlyAEEc4o-169" vertex="1">
          <mxGeometry x="530.74" y="300" width="69.26" height="100" as="geometry" />
        </mxCell>
        <mxCell id="6z_8afMqLUwwlyAEEc4o-228" value="&lt;pre style=&quot;font-size: 6px; line-height: 0%;&quot;&gt;&lt;br&gt;&lt;/pre&gt;" style="verticalLabelPosition=bottom;shadow=0;align=center;html=1;verticalAlign=top;shape=mxgraph.electrical.transmission.8_line_bus;rotation=90;spacingLeft=0;spacingTop=-6;labelBackgroundColor=none;fillColor=#FAE5C7;strokeColor=#0F8B8D;fontColor=#143642;rounded=0;" parent="6z_8afMqLUwwlyAEEc4o-169" vertex="1">
          <mxGeometry x="544.55" y="273.71000000000004" width="30.41" height="22.87" as="geometry" />
        </mxCell>
        <mxCell id="6z_8afMqLUwwlyAEEc4o-229" style="edgeStyle=elbowEdgeStyle;rounded=0;orthogonalLoop=1;jettySize=auto;html=1;strokeColor=#A8201A;fontColor=default;fillColor=#FAE5C7;shape=link;labelBackgroundColor=none;" parent="6z_8afMqLUwwlyAEEc4o-169" edge="1">
          <mxGeometry relative="1" as="geometry">
            <mxPoint x="539.0555555555555" y="270" as="sourcePoint" />
            <mxPoint x="539" y="300" as="targetPoint" />
          </mxGeometry>
        </mxCell>
        <mxCell id="6z_8afMqLUwwlyAEEc4o-230" style="edgeStyle=elbowEdgeStyle;rounded=0;orthogonalLoop=1;jettySize=auto;html=1;entryX=1;entryY=0.25;entryDx=0;entryDy=0;strokeColor=#A8201A;fontColor=default;fillColor=#FAE5C7;labelBackgroundColor=none;exitX=0.25;exitY=1;exitDx=0;exitDy=0;" parent="6z_8afMqLUwwlyAEEc4o-169" source="6z_8afMqLUwwlyAEEc4o-219" target="6z_8afMqLUwwlyAEEc4o-227" edge="1">
          <mxGeometry relative="1" as="geometry">
            <mxPoint x="640" y="270" as="sourcePoint" />
            <mxPoint x="640" y="341.21" as="targetPoint" />
            <Array as="points">
              <mxPoint x="639" y="310" />
            </Array>
          </mxGeometry>
        </mxCell>
        <mxCell id="6z_8afMqLUwwlyAEEc4o-233" value="&lt;font style=&quot;font-size: 8px;&quot;&gt;DALY 40A Parallel module&lt;/font&gt;" style="whiteSpace=wrap;html=1;fillColor=#FAE5C7;strokeColor=#0F8B8D;fontColor=#143642;labelBackgroundColor=none;" parent="6z_8afMqLUwwlyAEEc4o-169" vertex="1">
          <mxGeometry x="610" y="400" width="40" height="50" as="geometry" />
        </mxCell>
        <mxCell id="5vFk3YhiuI77391CFOQ8-3" style="edgeStyle=none;curved=1;rounded=0;orthogonalLoop=1;jettySize=auto;html=1;fontFamily=Architects Daughter;fontSource=https%3A%2F%2Ffonts.googleapis.com%2Fcss%3Ffamily%3DArchitects%2BDaughter;fontSize=16;endArrow=open;sourcePerimeterSpacing=8;targetPerimeterSpacing=8;shape=link;entryX=0.5;entryY=1;entryDx=0;entryDy=0;labelBackgroundColor=none;strokeColor=#A8201A;fontColor=default;" parent="6z_8afMqLUwwlyAEEc4o-169" edge="1" target="6z_8afMqLUwwlyAEEc4o-206">
          <mxGeometry relative="1" as="geometry">
            <mxPoint x="395.23" y="450" as="targetPoint" />
            <mxPoint x="395.23" y="470" as="sourcePoint" />
          </mxGeometry>
        </mxCell>
        <mxCell id="5vFk3YhiuI77391CFOQ8-4" style="edgeStyle=none;curved=1;rounded=0;orthogonalLoop=1;jettySize=auto;html=1;fontFamily=Architects Daughter;fontSource=https%3A%2F%2Ffonts.googleapis.com%2Fcss%3Ffamily%3DArchitects%2BDaughter;fontSize=16;endArrow=open;sourcePerimeterSpacing=8;targetPerimeterSpacing=8;shape=link;entryX=0.5;entryY=1;entryDx=0;entryDy=0;labelBackgroundColor=none;strokeColor=#A8201A;fontColor=default;" parent="6z_8afMqLUwwlyAEEc4o-169" edge="1" target="6z_8afMqLUwwlyAEEc4o-227">
          <mxGeometry relative="1" as="geometry">
            <mxPoint x="565.23" y="450" as="targetPoint" />
            <mxPoint x="57" y="470" as="sourcePoint" />
            <Array as="points">
              <mxPoint x="565" y="470" />
            </Array>
          </mxGeometry>
        </mxCell>
        <mxCell id="4kLDl25QIKVFQ8sIAu_H-4" value="&lt;font style=&quot;font-size: 9px;&quot;&gt;CAN&lt;/font&gt;" style="shape=offPageConnector;whiteSpace=wrap;html=1;rotation=90;horizontal=1;flipV=1;labelBackgroundColor=none;fillColor=#FAE5C7;strokeColor=#0F8B8D;fontColor=#143642;" parent="6z_8afMqLUwwlyAEEc4o-169" vertex="1">
          <mxGeometry x="4.549999999999996" y="460" width="30" height="20" as="geometry" />
        </mxCell>
        <mxCell id="6z_8afMqLUwwlyAEEc4o-24" style="edgeStyle=orthogonalEdgeStyle;rounded=0;orthogonalLoop=1;jettySize=auto;html=1;strokeColor=#A8201A;fontColor=default;fillColor=#FAE5C7;shape=link;labelBackgroundColor=none;entryX=0.5;entryY=0;entryDx=0;entryDy=0;" parent="6z_8afMqLUwwlyAEEc4o-169" source="nOU4_NgVh6XaABi12xhm-118" target="4kLDl25QIKVFQ8sIAu_H-4" edge="1">
          <mxGeometry relative="1" as="geometry">
            <mxPoint x="55" y="530" as="targetPoint" />
          </mxGeometry>
        </mxCell>
        <mxCell id="CXnemEisMQlB7KgPm6j0-20" value="&lt;p style=&quot;line-height: 105%;&quot;&gt;9 Pin&lt;/p&gt;" style="pointerEvents=1;verticalLabelPosition=bottom;shadow=0;dashed=0;align=center;html=1;verticalAlign=top;shape=mxgraph.electrical.miscellaneous.small_d_connector;horizontal=1;spacingLeft=0;spacingBottom=0;spacing=0;spacingTop=-39;labelBackgroundColor=none;fillColor=#FAE5C7;strokeColor=#0F8B8D;fontColor=#143642;rounded=0;" parent="6z_8afMqLUwwlyAEEc4o-169" vertex="1">
          <mxGeometry x="527.26" y="240" width="65" height="30" as="geometry" />
        </mxCell>
        <mxCell id="CXnemEisMQlB7KgPm6j0-5" value="&lt;p style=&quot;line-height: 105%;&quot;&gt;9 Pin&lt;/p&gt;" style="pointerEvents=1;verticalLabelPosition=bottom;shadow=0;dashed=0;align=center;html=1;verticalAlign=top;shape=mxgraph.electrical.miscellaneous.small_d_connector;horizontal=1;spacingLeft=0;spacingBottom=0;spacing=0;spacingTop=-39;labelBackgroundColor=none;fillColor=#FAE5C7;strokeColor=#0F8B8D;fontColor=#143642;rounded=0;" parent="6z_8afMqLUwwlyAEEc4o-169" vertex="1">
          <mxGeometry x="357.26" y="240" width="65" height="30" as="geometry" />
        </mxCell>
        <mxCell id="i5OIsY9urdnVdyhrmxkR-107" value="&lt;font style=&quot;font-size: 8px;&quot;&gt;CAN Transceiver&lt;/font&gt;" style="whiteSpace=wrap;html=1;strokeColor=#0F8B8D;fontColor=#143642;fillColor=#FAE5C7;" vertex="1" parent="6z_8afMqLUwwlyAEEc4o-169">
          <mxGeometry x="29.47" y="420" width="51.8" height="30" as="geometry" />
        </mxCell>
        <mxCell id="i5OIsY9urdnVdyhrmxkR-109" value="&lt;font style=&quot;font-size: 8px;&quot;&gt;CAN Transceiver&lt;/font&gt;" style="whiteSpace=wrap;html=1;strokeColor=#0F8B8D;fontColor=#143642;fillColor=#FAE5C7;" vertex="1" parent="6z_8afMqLUwwlyAEEc4o-169">
          <mxGeometry x="199.47" y="420" width="51.8" height="30" as="geometry" />
        </mxCell>
        <mxCell id="i5OIsY9urdnVdyhrmxkR-112" value="&lt;font style=&quot;font-size: 8px;&quot;&gt;CAN Transceiver&lt;/font&gt;" style="whiteSpace=wrap;html=1;strokeColor=#0F8B8D;fontColor=#143642;fillColor=#FAE5C7;" vertex="1" parent="6z_8afMqLUwwlyAEEc4o-169">
          <mxGeometry x="370.46000000000004" y="420" width="51.8" height="30" as="geometry" />
        </mxCell>
        <mxCell id="i5OIsY9urdnVdyhrmxkR-113" value="&lt;font style=&quot;font-size: 8px;&quot;&gt;CAN Transceiver&lt;/font&gt;" style="whiteSpace=wrap;html=1;strokeColor=#0F8B8D;fontColor=#143642;fillColor=#FAE5C7;" vertex="1" parent="6z_8afMqLUwwlyAEEc4o-169">
          <mxGeometry x="540.46" y="420" width="51.8" height="30" as="geometry" />
        </mxCell>
        <mxCell id="4kLDl25QIKVFQ8sIAu_H-33" style="edgeStyle=orthogonalEdgeStyle;rounded=0;orthogonalLoop=1;jettySize=auto;html=1;strokeColor=#A8201A;fontColor=default;fillColor=#FAE5C7;exitX=0.051;exitY=0.998;exitDx=0;exitDy=0;exitPerimeter=0;labelBackgroundColor=none;" parent="1" source="CXnemEisMQlB7KgPm6j0-27" target="4kLDl25QIKVFQ8sIAu_H-14" edge="1">
          <mxGeometry relative="1" as="geometry">
            <mxPoint x="280" y="710" as="sourcePoint" />
            <Array as="points">
              <mxPoint x="350" y="760" />
              <mxPoint x="209" y="760" />
            </Array>
          </mxGeometry>
        </mxCell>
        <mxCell id="CXnemEisMQlB7KgPm6j0-23" style="edgeStyle=orthogonalEdgeStyle;shape=connector;rounded=0;orthogonalLoop=1;jettySize=auto;html=1;strokeColor=#A8201A;align=center;verticalAlign=middle;fontFamily=Helvetica;fontSize=11;fontColor=default;labelBackgroundColor=none;endArrow=classic;fillColor=#FAE5C7;entryX=0.126;entryY=0.998;entryDx=0;entryDy=0;entryPerimeter=0;" parent="1" source="4kLDl25QIKVFQ8sIAu_H-29" target="CXnemEisMQlB7KgPm6j0-27" edge="1">
          <mxGeometry relative="1" as="geometry">
            <mxPoint x="280" y="780" as="targetPoint" />
            <Array as="points">
              <mxPoint x="359" y="785" />
            </Array>
          </mxGeometry>
        </mxCell>
        <mxCell id="i5OIsY9urdnVdyhrmxkR-70" style="edgeStyle=orthogonalEdgeStyle;rounded=0;orthogonalLoop=1;jettySize=auto;html=1;strokeColor=#A8201A;fontColor=#143642;fillColor=#FAE5C7;exitX=0.25;exitY=0;exitDx=0;exitDy=0;" edge="1" parent="1" source="i5OIsY9urdnVdyhrmxkR-13" target="CXnemEisMQlB7KgPm6j0-28">
          <mxGeometry relative="1" as="geometry">
            <mxPoint x="390" y="850" as="sourcePoint" />
            <Array as="points">
              <mxPoint x="390" y="840" />
              <mxPoint x="680" y="840" />
            </Array>
          </mxGeometry>
        </mxCell>
        <mxCell id="i5OIsY9urdnVdyhrmxkR-80" value="GND" style="edgeLabel;html=1;align=center;verticalAlign=middle;resizable=0;points=[];strokeColor=#0F8B8D;fontColor=#143642;fillColor=#FAE5C7;" vertex="1" connectable="0" parent="i5OIsY9urdnVdyhrmxkR-70">
          <mxGeometry x="-0.9593" y="3" relative="1" as="geometry">
            <mxPoint x="-13" y="5" as="offset" />
          </mxGeometry>
        </mxCell>
        <mxCell id="i5OIsY9urdnVdyhrmxkR-83" value="GND" style="edgeLabel;html=1;align=center;verticalAlign=middle;resizable=0;points=[];strokeColor=#0F8B8D;fontColor=#143642;fillColor=#FAE5C7;" vertex="1" connectable="0" parent="i5OIsY9urdnVdyhrmxkR-70">
          <mxGeometry x="0.951" relative="1" as="geometry">
            <mxPoint y="7" as="offset" />
          </mxGeometry>
        </mxCell>
        <mxCell id="i5OIsY9urdnVdyhrmxkR-73" style="edgeStyle=orthogonalEdgeStyle;rounded=0;orthogonalLoop=1;jettySize=auto;html=1;entryX=0.75;entryY=0;entryDx=0;entryDy=0;strokeColor=#A8201A;fontColor=#143642;fillColor=#FAE5C7;exitX=0.75;exitY=1;exitDx=0;exitDy=0;" edge="1" parent="1" source="CXnemEisMQlB7KgPm6j0-28" target="i5OIsY9urdnVdyhrmxkR-56">
          <mxGeometry relative="1" as="geometry" />
        </mxCell>
        <mxCell id="i5OIsY9urdnVdyhrmxkR-78" value="S1" style="edgeLabel;html=1;align=center;verticalAlign=middle;resizable=0;points=[];strokeColor=#0F8B8D;fontColor=#143642;fillColor=#FAE5C7;" vertex="1" connectable="0" parent="i5OIsY9urdnVdyhrmxkR-73">
          <mxGeometry x="0.9227" y="1" relative="1" as="geometry">
            <mxPoint x="12" y="5" as="offset" />
          </mxGeometry>
        </mxCell>
        <mxCell id="i5OIsY9urdnVdyhrmxkR-75" style="edgeStyle=orthogonalEdgeStyle;rounded=0;orthogonalLoop=1;jettySize=auto;html=1;strokeColor=#A8201A;fontColor=#143642;fillColor=#FAE5C7;exitX=0.627;exitY=0.992;exitDx=0;exitDy=0;exitPerimeter=0;entryX=0.75;entryY=0;entryDx=0;entryDy=0;" edge="1" parent="1" source="CXnemEisMQlB7KgPm6j0-28" target="i5OIsY9urdnVdyhrmxkR-13">
          <mxGeometry relative="1" as="geometry">
            <mxPoint x="430" y="850" as="targetPoint" />
            <Array as="points">
              <mxPoint x="630" y="850" />
              <mxPoint x="430" y="850" />
            </Array>
          </mxGeometry>
        </mxCell>
        <mxCell id="i5OIsY9urdnVdyhrmxkR-76" value="S1" style="edgeLabel;html=1;align=center;verticalAlign=middle;resizable=0;points=[];strokeColor=#0F8B8D;fontColor=#143642;fillColor=#FAE5C7;" vertex="1" connectable="0" parent="i5OIsY9urdnVdyhrmxkR-75">
          <mxGeometry x="0.9534" y="-2" relative="1" as="geometry">
            <mxPoint x="13" y="5" as="offset" />
          </mxGeometry>
        </mxCell>
        <mxCell id="i5OIsY9urdnVdyhrmxkR-82" value="&lt;font style=&quot;font-size: 10px;&quot;&gt;Serial Tx&lt;/font&gt;&lt;div style=&quot;font-size: 10px;&quot;&gt;&lt;font style=&quot;font-size: 10px;&quot;&gt;x3&lt;/font&gt;&lt;/div&gt;" style="edgeLabel;html=1;align=center;verticalAlign=middle;resizable=0;points=[];strokeColor=#0F8B8D;fontColor=#143642;fillColor=#FAE5C7;" vertex="1" connectable="0" parent="i5OIsY9urdnVdyhrmxkR-75">
          <mxGeometry x="-0.9556" y="-1" relative="1" as="geometry">
            <mxPoint x="11" y="10" as="offset" />
          </mxGeometry>
        </mxCell>
        <mxCell id="i5OIsY9urdnVdyhrmxkR-12" value="Wheel Subsystem" style="swimlane;whiteSpace=wrap;html=1;strokeColor=#0F8B8D;align=center;verticalAlign=middle;fontFamily=Helvetica;fontSize=12;fontColor=#143642;fontStyle=1;labelBackgroundColor=none;fillColor=#FAE5C7;dropTarget=1;collapsible=0;" vertex="1" parent="1">
          <mxGeometry x="330" y="810" width="380" height="220" as="geometry" />
        </mxCell>
        <mxCell id="i5OIsY9urdnVdyhrmxkR-16" style="edgeStyle=orthogonalEdgeStyle;rounded=0;orthogonalLoop=1;jettySize=auto;html=1;strokeColor=#A8201A;fontColor=#143642;fillColor=#FAE5C7;exitX=0.25;exitY=1;exitDx=0;exitDy=0;shape=link;entryX=0.5;entryY=0;entryDx=0;entryDy=0;" edge="1" parent="i5OIsY9urdnVdyhrmxkR-12" source="i5OIsY9urdnVdyhrmxkR-13" target="i5OIsY9urdnVdyhrmxkR-22">
          <mxGeometry relative="1" as="geometry">
            <mxPoint x="60" y="170" as="targetPoint" />
            <Array as="points">
              <mxPoint x="60" y="140" />
              <mxPoint x="50" y="140" />
            </Array>
          </mxGeometry>
        </mxCell>
        <mxCell id="i5OIsY9urdnVdyhrmxkR-18" style="edgeStyle=orthogonalEdgeStyle;rounded=0;orthogonalLoop=1;jettySize=auto;html=1;strokeColor=#A8201A;fontColor=#143642;fillColor=#FAE5C7;exitX=0.75;exitY=1;exitDx=0;exitDy=0;shape=link;entryX=0.5;entryY=0;entryDx=0;entryDy=0;" edge="1" parent="i5OIsY9urdnVdyhrmxkR-12" source="i5OIsY9urdnVdyhrmxkR-13" target="i5OIsY9urdnVdyhrmxkR-24">
          <mxGeometry relative="1" as="geometry">
            <mxPoint x="100" y="170" as="targetPoint" />
            <Array as="points">
              <mxPoint x="100" y="140" />
              <mxPoint x="110" y="140" />
            </Array>
          </mxGeometry>
        </mxCell>
        <mxCell id="i5OIsY9urdnVdyhrmxkR-59" style="edgeStyle=orthogonalEdgeStyle;rounded=0;orthogonalLoop=1;jettySize=auto;html=1;strokeColor=#A8201A;fontColor=#143642;fillColor=#FAE5C7;" edge="1" parent="i5OIsY9urdnVdyhrmxkR-12" target="i5OIsY9urdnVdyhrmxkR-13">
          <mxGeometry relative="1" as="geometry">
            <mxPoint x="70" y="160" as="sourcePoint" />
            <Array as="points">
              <mxPoint x="70" y="150" />
              <mxPoint x="70" y="150" />
            </Array>
          </mxGeometry>
        </mxCell>
        <mxCell id="i5OIsY9urdnVdyhrmxkR-60" style="edgeStyle=orthogonalEdgeStyle;rounded=0;orthogonalLoop=1;jettySize=auto;html=1;strokeColor=#A8201A;fontColor=#143642;fillColor=#FAE5C7;" edge="1" parent="i5OIsY9urdnVdyhrmxkR-12" source="i5OIsY9urdnVdyhrmxkR-13">
          <mxGeometry relative="1" as="geometry">
            <mxPoint x="90" y="150" as="targetPoint" />
            <Array as="points">
              <mxPoint x="90" y="150" />
            </Array>
          </mxGeometry>
        </mxCell>
        <mxCell id="i5OIsY9urdnVdyhrmxkR-13" value="Sabertooth 2x25" style="rounded=0;whiteSpace=wrap;html=1;strokeColor=#0F8B8D;align=center;verticalAlign=middle;fontFamily=Helvetica;fontSize=12;fontColor=#143642;fontStyle=1;labelBackgroundColor=none;fillColor=#FAE5C7;" vertex="1" parent="i5OIsY9urdnVdyhrmxkR-12">
          <mxGeometry x="40" y="70" width="80" height="60" as="geometry" />
        </mxCell>
        <mxCell id="i5OIsY9urdnVdyhrmxkR-22" value="&lt;font style=&quot;font-size: 10px;&quot;&gt;Wheel&lt;/font&gt;&lt;div style=&quot;font-size: 10px;&quot;&gt;&lt;font style=&quot;font-size: 10px;&quot;&gt;Motor&lt;/font&gt;&lt;/div&gt;" style="ellipse;whiteSpace=wrap;html=1;aspect=fixed;strokeColor=#0F8B8D;fontColor=#143642;fillColor=#FAE5C7;fontSize=10;" vertex="1" parent="i5OIsY9urdnVdyhrmxkR-12">
          <mxGeometry x="30" y="170" width="40" height="40" as="geometry" />
        </mxCell>
        <mxCell id="i5OIsY9urdnVdyhrmxkR-24" value="Wheel&lt;div style=&quot;font-size: 10px;&quot;&gt;Motor&lt;/div&gt;" style="ellipse;whiteSpace=wrap;html=1;aspect=fixed;strokeColor=#0F8B8D;fontColor=#143642;fillColor=#FAE5C7;fontSize=10;" vertex="1" parent="i5OIsY9urdnVdyhrmxkR-12">
          <mxGeometry x="90" y="170" width="40" height="40" as="geometry" />
        </mxCell>
        <mxCell id="i5OIsY9urdnVdyhrmxkR-49" style="edgeStyle=orthogonalEdgeStyle;rounded=0;orthogonalLoop=1;jettySize=auto;html=1;strokeColor=#A8201A;fontColor=#143642;fillColor=#FAE5C7;exitX=0.25;exitY=1;exitDx=0;exitDy=0;shape=link;entryX=0.5;entryY=0;entryDx=0;entryDy=0;" edge="1" source="i5OIsY9urdnVdyhrmxkR-51" target="i5OIsY9urdnVdyhrmxkR-52" parent="i5OIsY9urdnVdyhrmxkR-12">
          <mxGeometry relative="1" as="geometry">
            <mxPoint x="170" y="170" as="targetPoint" />
            <Array as="points">
              <mxPoint x="170" y="140" />
              <mxPoint x="160" y="140" />
            </Array>
          </mxGeometry>
        </mxCell>
        <mxCell id="i5OIsY9urdnVdyhrmxkR-50" style="edgeStyle=orthogonalEdgeStyle;rounded=0;orthogonalLoop=1;jettySize=auto;html=1;strokeColor=#A8201A;fontColor=#143642;fillColor=#FAE5C7;exitX=0.75;exitY=1;exitDx=0;exitDy=0;shape=link;entryX=0.5;entryY=0;entryDx=0;entryDy=0;" edge="1" source="i5OIsY9urdnVdyhrmxkR-51" target="i5OIsY9urdnVdyhrmxkR-53" parent="i5OIsY9urdnVdyhrmxkR-12">
          <mxGeometry relative="1" as="geometry">
            <mxPoint x="210" y="170" as="targetPoint" />
            <Array as="points">
              <mxPoint x="210" y="140" />
              <mxPoint x="220" y="140" />
            </Array>
          </mxGeometry>
        </mxCell>
        <mxCell id="i5OIsY9urdnVdyhrmxkR-71" style="edgeStyle=orthogonalEdgeStyle;rounded=0;orthogonalLoop=1;jettySize=auto;html=1;strokeColor=#A8201A;fontColor=#143642;fillColor=#FAE5C7;exitX=0.25;exitY=0;exitDx=0;exitDy=0;" edge="1" parent="i5OIsY9urdnVdyhrmxkR-12" source="i5OIsY9urdnVdyhrmxkR-51">
          <mxGeometry relative="1" as="geometry">
            <mxPoint x="170" y="30" as="targetPoint" />
          </mxGeometry>
        </mxCell>
        <mxCell id="i5OIsY9urdnVdyhrmxkR-79" value="GND" style="edgeLabel;html=1;align=center;verticalAlign=middle;resizable=0;points=[];strokeColor=#0F8B8D;fontColor=#143642;fillColor=#FAE5C7;" vertex="1" connectable="0" parent="i5OIsY9urdnVdyhrmxkR-71">
          <mxGeometry x="-0.5639" relative="1" as="geometry">
            <mxPoint x="-15" y="4" as="offset" />
          </mxGeometry>
        </mxCell>
        <mxCell id="i5OIsY9urdnVdyhrmxkR-51" value="Sabertooth 2x25" style="rounded=0;whiteSpace=wrap;html=1;strokeColor=#0F8B8D;align=center;verticalAlign=middle;fontFamily=Helvetica;fontSize=12;fontColor=#143642;fontStyle=1;labelBackgroundColor=none;fillColor=#FAE5C7;" vertex="1" parent="i5OIsY9urdnVdyhrmxkR-12">
          <mxGeometry x="150" y="70" width="80" height="60" as="geometry" />
        </mxCell>
        <mxCell id="i5OIsY9urdnVdyhrmxkR-52" value="&lt;font style=&quot;font-size: 10px;&quot;&gt;Wheel&lt;/font&gt;&lt;div style=&quot;font-size: 10px;&quot;&gt;&lt;font style=&quot;font-size: 10px;&quot;&gt;Motor&lt;/font&gt;&lt;/div&gt;" style="ellipse;whiteSpace=wrap;html=1;aspect=fixed;strokeColor=#0F8B8D;fontColor=#143642;fillColor=#FAE5C7;fontSize=10;" vertex="1" parent="i5OIsY9urdnVdyhrmxkR-12">
          <mxGeometry x="140" y="170" width="40" height="40" as="geometry" />
        </mxCell>
        <mxCell id="i5OIsY9urdnVdyhrmxkR-53" value="Wheel&lt;div style=&quot;font-size: 10px;&quot;&gt;Motor&lt;/div&gt;" style="ellipse;whiteSpace=wrap;html=1;aspect=fixed;strokeColor=#0F8B8D;fontColor=#143642;fillColor=#FAE5C7;fontSize=10;" vertex="1" parent="i5OIsY9urdnVdyhrmxkR-12">
          <mxGeometry x="200" y="170" width="40" height="40" as="geometry" />
        </mxCell>
        <mxCell id="i5OIsY9urdnVdyhrmxkR-54" style="edgeStyle=orthogonalEdgeStyle;rounded=0;orthogonalLoop=1;jettySize=auto;html=1;strokeColor=#A8201A;fontColor=#143642;fillColor=#FAE5C7;exitX=0.25;exitY=1;exitDx=0;exitDy=0;shape=link;entryX=0.5;entryY=0;entryDx=0;entryDy=0;" edge="1" source="i5OIsY9urdnVdyhrmxkR-56" target="i5OIsY9urdnVdyhrmxkR-57" parent="i5OIsY9urdnVdyhrmxkR-12">
          <mxGeometry relative="1" as="geometry">
            <mxPoint x="280" y="170" as="targetPoint" />
            <Array as="points">
              <mxPoint x="280" y="140" />
              <mxPoint x="270" y="140" />
            </Array>
          </mxGeometry>
        </mxCell>
        <mxCell id="i5OIsY9urdnVdyhrmxkR-55" style="edgeStyle=orthogonalEdgeStyle;rounded=0;orthogonalLoop=1;jettySize=auto;html=1;strokeColor=#A8201A;fontColor=#143642;fillColor=#FAE5C7;exitX=0.75;exitY=1;exitDx=0;exitDy=0;shape=link;entryX=0.5;entryY=0;entryDx=0;entryDy=0;" edge="1" source="i5OIsY9urdnVdyhrmxkR-56" target="i5OIsY9urdnVdyhrmxkR-58" parent="i5OIsY9urdnVdyhrmxkR-12">
          <mxGeometry relative="1" as="geometry">
            <mxPoint x="320" y="170" as="targetPoint" />
            <Array as="points">
              <mxPoint x="320" y="140" />
              <mxPoint x="330" y="140" />
            </Array>
          </mxGeometry>
        </mxCell>
        <mxCell id="i5OIsY9urdnVdyhrmxkR-72" style="edgeStyle=orthogonalEdgeStyle;rounded=0;orthogonalLoop=1;jettySize=auto;html=1;strokeColor=#A8201A;fontColor=#143642;fillColor=#FAE5C7;exitX=0.25;exitY=0;exitDx=0;exitDy=0;" edge="1" parent="i5OIsY9urdnVdyhrmxkR-12" source="i5OIsY9urdnVdyhrmxkR-56">
          <mxGeometry relative="1" as="geometry">
            <mxPoint x="280" y="30" as="targetPoint" />
          </mxGeometry>
        </mxCell>
        <mxCell id="i5OIsY9urdnVdyhrmxkR-81" value="GND" style="edgeLabel;html=1;align=center;verticalAlign=middle;resizable=0;points=[];strokeColor=#0F8B8D;fontColor=#143642;fillColor=#FAE5C7;" vertex="1" connectable="0" parent="i5OIsY9urdnVdyhrmxkR-72">
          <mxGeometry x="-0.4569" y="1" relative="1" as="geometry">
            <mxPoint x="-14" y="4" as="offset" />
          </mxGeometry>
        </mxCell>
        <mxCell id="i5OIsY9urdnVdyhrmxkR-56" value="Sabertooth 2x25" style="rounded=0;whiteSpace=wrap;html=1;strokeColor=#0F8B8D;align=center;verticalAlign=middle;fontFamily=Helvetica;fontSize=12;fontColor=#143642;fontStyle=1;labelBackgroundColor=none;fillColor=#FAE5C7;" vertex="1" parent="i5OIsY9urdnVdyhrmxkR-12">
          <mxGeometry x="260" y="70" width="80" height="60" as="geometry" />
        </mxCell>
        <mxCell id="i5OIsY9urdnVdyhrmxkR-57" value="&lt;font style=&quot;font-size: 10px;&quot;&gt;Wheel&lt;/font&gt;&lt;div style=&quot;font-size: 10px;&quot;&gt;&lt;font style=&quot;font-size: 10px;&quot;&gt;Motor&lt;/font&gt;&lt;/div&gt;" style="ellipse;whiteSpace=wrap;html=1;aspect=fixed;strokeColor=#0F8B8D;fontColor=#143642;fillColor=#FAE5C7;fontSize=10;" vertex="1" parent="i5OIsY9urdnVdyhrmxkR-12">
          <mxGeometry x="250" y="170" width="40" height="40" as="geometry" />
        </mxCell>
        <mxCell id="i5OIsY9urdnVdyhrmxkR-58" value="Wheel&lt;div style=&quot;font-size: 10px;&quot;&gt;Motor&lt;/div&gt;" style="ellipse;whiteSpace=wrap;html=1;aspect=fixed;strokeColor=#0F8B8D;fontColor=#143642;fillColor=#FAE5C7;fontSize=10;" vertex="1" parent="i5OIsY9urdnVdyhrmxkR-12">
          <mxGeometry x="310" y="170" width="40" height="40" as="geometry" />
        </mxCell>
        <mxCell id="i5OIsY9urdnVdyhrmxkR-63" style="edgeStyle=orthogonalEdgeStyle;rounded=0;orthogonalLoop=1;jettySize=auto;html=1;strokeColor=#A8201A;fontColor=#143642;fillColor=#FAE5C7;" edge="1" parent="i5OIsY9urdnVdyhrmxkR-12">
          <mxGeometry relative="1" as="geometry">
            <mxPoint x="179.8" y="130" as="targetPoint" />
            <mxPoint x="179.8" y="160" as="sourcePoint" />
            <Array as="points">
              <mxPoint x="179.8" y="150" />
              <mxPoint x="179.8" y="150" />
            </Array>
          </mxGeometry>
        </mxCell>
        <mxCell id="i5OIsY9urdnVdyhrmxkR-64" style="edgeStyle=orthogonalEdgeStyle;rounded=0;orthogonalLoop=1;jettySize=auto;html=1;strokeColor=#A8201A;fontColor=#143642;fillColor=#FAE5C7;" edge="1" parent="i5OIsY9urdnVdyhrmxkR-12">
          <mxGeometry relative="1" as="geometry">
            <mxPoint x="199.79999999999995" y="150" as="targetPoint" />
            <mxPoint x="199.79999999999995" y="130" as="sourcePoint" />
            <Array as="points">
              <mxPoint x="199.79999999999995" y="150" />
            </Array>
          </mxGeometry>
        </mxCell>
        <mxCell id="i5OIsY9urdnVdyhrmxkR-65" style="edgeStyle=orthogonalEdgeStyle;rounded=0;orthogonalLoop=1;jettySize=auto;html=1;strokeColor=#A8201A;fontColor=#143642;fillColor=#FAE5C7;" edge="1" parent="i5OIsY9urdnVdyhrmxkR-12">
          <mxGeometry relative="1" as="geometry">
            <mxPoint x="289.6" y="130" as="targetPoint" />
            <mxPoint x="289.6" y="160" as="sourcePoint" />
            <Array as="points">
              <mxPoint x="289.6" y="150" />
              <mxPoint x="289.6" y="150" />
            </Array>
          </mxGeometry>
        </mxCell>
        <mxCell id="i5OIsY9urdnVdyhrmxkR-66" style="edgeStyle=orthogonalEdgeStyle;rounded=0;orthogonalLoop=1;jettySize=auto;html=1;strokeColor=#A8201A;fontColor=#143642;fillColor=#FAE5C7;" edge="1" parent="i5OIsY9urdnVdyhrmxkR-12">
          <mxGeometry relative="1" as="geometry">
            <mxPoint x="309.6" y="150" as="targetPoint" />
            <mxPoint x="309.6" y="130" as="sourcePoint" />
            <Array as="points">
              <mxPoint x="309.6" y="150" />
            </Array>
          </mxGeometry>
        </mxCell>
        <mxCell id="i5OIsY9urdnVdyhrmxkR-98" value="Arm Subsystem" style="swimlane;whiteSpace=wrap;html=1;strokeColor=#0F8B8D;fontColor=#143642;fillColor=#FAE5C7;collapsible=0;" vertex="1" parent="1">
          <mxGeometry x="720" y="550" width="420" height="490" as="geometry" />
        </mxCell>
        <mxCell id="i5OIsY9urdnVdyhrmxkR-103" value="DM542T Stepper Controller" style="whiteSpace=wrap;html=1;strokeColor=#0F8B8D;fontColor=#143642;fillColor=#FAE5C7;" vertex="1" parent="i5OIsY9urdnVdyhrmxkR-98">
          <mxGeometry x="20" y="120" width="110" height="60" as="geometry" />
        </mxCell>
        <mxCell id="i5OIsY9urdnVdyhrmxkR-102" value="DM542T Stepper Controller" style="whiteSpace=wrap;html=1;strokeColor=#0F8B8D;fontColor=#143642;fillColor=#FAE5C7;" vertex="1" parent="i5OIsY9urdnVdyhrmxkR-98">
          <mxGeometry x="20" y="190" width="110" height="60" as="geometry" />
        </mxCell>
        <mxCell id="i5OIsY9urdnVdyhrmxkR-101" value="DM542T Stepper Controller" style="whiteSpace=wrap;html=1;strokeColor=#0F8B8D;fontColor=#143642;fillColor=#FAE5C7;" vertex="1" parent="i5OIsY9urdnVdyhrmxkR-98">
          <mxGeometry x="20" y="260" width="110" height="60" as="geometry" />
        </mxCell>
        <mxCell id="i5OIsY9urdnVdyhrmxkR-99" value="DM542T Stepper Controller" style="whiteSpace=wrap;html=1;strokeColor=#0F8B8D;fontColor=#143642;fillColor=#FAE5C7;" vertex="1" parent="i5OIsY9urdnVdyhrmxkR-98">
          <mxGeometry x="20" y="50" width="110" height="60" as="geometry" />
        </mxCell>
      </root>
    </mxGraphModel>
  </diagram>
</mxfile>
